<?xml version="1.0" standalone="no"?>
<!DOCTYPE svg PUBLIC "-//W3C//DTD SVG 20010904//EN"
 "http://www.w3.org/TR/2001/REC-SVG-20010904/DTD/svg10.dtd">
<svg version="1.0" xmlns="http://www.w3.org/2000/svg"
 width="183.000000pt" height="167.000000pt" viewBox="0 0 183.000000 167.000000"
 preserveAspectRatio="xMidYMid meet">

<g transform="translate(0.000000,167.000000) scale(0.100000,-0.100000)"
fill="#000000" stroke="none">
<path d="M0 835 l0 -835 915 0 915 0 0 835 0 835 -915 0 -915 0 0 -835z m920
639 c0 -11 -6 -14 -20 -9 -11 4 -20 2 -20 -4 0 -6 4 -11 10 -11 5 0 6 -8 3
-17 -6 -15 -4 -16 9 -5 12 10 18 10 23 1 10 -15 -13 -29 -47 -29 -23 0 -28 4
-28 24 0 13 -3 31 -6 39 -6 16 11 24 54 26 14 1 22 -5 22 -15z m113 2 c7 -17
-11 -36 -35 -36 -11 0 -15 -5 -12 -15 5 -11 -1 -15 -18 -15 -21 0 -23 5 -23
40 l0 40 41 0 c26 0 44 -5 47 -14z m56 5 c7 -5 10 -14 7 -20 -4 -6 -2 -11 3
-11 6 0 11 7 11 15 0 17 18 19 39 6 9 -6 10 -11 2 -15 -6 -4 -11 -21 -11 -37
0 -31 0 -31 -42 -24 -56 9 -60 13 -48 35 5 10 10 28 10 39 0 23 7 26 29 12z
m-269 -35 c0 -14 5 -28 10 -31 16 -10 12 -22 -11 -28 -12 -3 -22 0 -26 9 -3 8
-10 14 -15 14 -7 0 -6 -5 1 -13 13 -16 5 -27 -21 -27 -12 0 -18 7 -18 23 0 13
-5 28 -12 35 -14 14 -10 19 17 24 12 2 19 -2 18 -9 -2 -7 2 -13 8 -13 6 0 9 6
6 14 -7 18 1 26 25 26 12 0 18 -7 18 -24z m399 3 c17 -6 31 -17 31 -25 0 -17
-12 -18 -29 -1 -11 10 -13 9 -8 -5 4 -12 1 -18 -9 -18 -8 0 -13 -4 -9 -10 3
-5 12 -7 20 -3 9 3 15 -1 15 -11 0 -19 -7 -20 -49 -5 -32 11 -39 23 -21 34 6
3 10 17 10 31 0 27 4 28 49 13z m-518 -34 c-1 -6 -5 -11 -11 -11 -24 -3 -23
-7 5 -13 38 -8 44 -34 10 -49 -33 -15 -35 -15 -35 4 0 10 6 14 15 10 8 -3 15
-1 15 4 0 6 -11 10 -25 10 -30 0 -35 33 -7 49 20 12 34 10 33 -4z m615 -16
c36 -22 44 -46 19 -55 -8 -4 -12 -10 -9 -15 9 -15 -5 -29 -22 -22 -9 3 -14 13
-11 24 3 11 1 22 -4 25 -5 3 -9 -2 -9 -10 0 -18 -2 -19 -24 -10 -17 7 -22 34
-6 34 5 0 12 11 16 25 7 30 8 30 50 4z m-688 -106 c-6 -8 -20 -10 -37 -6 -22
5 -24 4 -14 -8 15 -19 -28 -72 -51 -63 -9 3 -16 1 -16 -5 0 -6 4 -11 10 -11 5
0 -3 -19 -19 -42 -15 -24 -38 -69 -51 -101 -16 -37 -29 -56 -37 -53 -7 3 -13
-1 -13 -9 0 -8 5 -15 11 -15 16 0 0 -62 -20 -77 -15 -11 -14 -12 2 -13 10 0
17 -8 17 -19 0 -17 -6 -19 -42 -16 l-43 3 4 39 c4 43 12 52 47 45 13 -2 24 0
24 5 0 15 -23 33 -42 33 -20 0 -21 4 -12 38 4 13 14 22 23 21 9 -1 27 -1 40 0
20 1 21 3 11 16 -7 8 -21 15 -31 15 -20 0 -24 16 -9 40 7 12 12 12 29 -4 22
-20 43 -14 34 11 -5 12 -2 15 10 10 30 -11 18 11 -13 25 -34 15 -36 20 -15 38
11 10 18 9 30 -4 9 -9 23 -16 31 -16 12 0 13 4 3 23 -7 12 -18 26 -26 30 -12
7 -11 13 7 32 20 21 24 22 37 9 16 -16 53 -19 53 -4 0 5 -9 15 -20 22 -38 24
-12 55 34 43 19 -6 20 -5 4 8 -13 10 -14 17 -6 25 16 16 71 -47 56 -65z m522
45 c36 -13 91 -41 123 -62 265 -176 305 -575 78 -788 -30 -29 -55 -56 -54 -60
1 -3 -5 -12 -14 -20 -15 -11 -16 -11 -10 5 4 11 3 16 -3 12 -6 -3 -10 -13 -10
-21 0 -8 -7 -17 -15 -20 -8 -4 -15 -10 -15 -16 0 -5 4 -7 9 -4 10 7 9 -13 -2
-31 -4 -6 -3 -14 3 -18 6 -4 7 -11 4 -17 -4 -6 -8 -23 -9 -39 -2 -26 0 -29 19
-24 11 3 5 -3 -14 -14 -62 -34 -159 -54 -260 -54 -105 -1 -179 14 -255 49 -27
13 -41 22 -30 19 19 -5 21 0 21 68 0 47 -5 75 -13 80 -7 4 -13 14 -13 22 0 8
-5 17 -12 21 -7 5 -8 3 -3 -6 5 -7 -16 9 -45 36 -180 167 -225 417 -114 636
59 117 203 228 340 263 82 21 211 13 294 -17z m250 2 c47 -25 45 -90 -3 -90
-20 1 -67 31 -67 44 0 5 42 53 48 55 2 1 12 -4 22 -9z m89 -92 c11 -11 18 -25
15 -30 -9 -14 -22 -9 -27 10 -3 9 -5 2 -6 -15 -1 -26 -5 -33 -21 -33 -25 0
-47 37 -31 53 8 8 11 6 11 -6 0 -9 4 -17 9 -17 5 0 7 9 4 21 -4 12 0 25 8 30
18 11 15 12 38 -13z m74 -112 c15 -32 14 -46 -5 -46 -4 0 -8 7 -8 15 0 8 -4
15 -10 15 -5 0 -10 -5 -10 -11 0 -5 -4 -8 -9 -4 -5 3 -13 0 -17 -6 -5 -9 -11
-7 -21 6 -18 26 -16 35 6 35 10 0 24 7 31 15 18 22 24 19 43 -19z m31 -72 c9
-22 9 -22 -24 -29 -16 -4 -30 -11 -30 -16 0 -9 17 -7 58 8 6 3 12 -2 12 -10 0
-9 -14 -17 -37 -22 -29 -5 -40 -3 -50 11 -19 26 -17 32 20 54 39 24 43 24 51
4z m29 -121 c5 -42 -8 -67 -31 -58 -8 3 -20 1 -27 -5 -22 -18 -29 9 -8 32 15
18 16 21 2 15 -12 -4 -18 1 -21 18 -4 21 -1 24 31 28 20 2 39 4 42 5 4 1 9
-15 12 -35z m7 -123 c0 -30 -4 -40 -16 -40 -11 0 -14 6 -9 20 4 11 2 20 -4 20
-6 0 -11 -6 -12 -12 0 -10 -2 -10 -6 0 -8 20 -25 13 -18 -8 5 -14 2 -20 -9
-20 -12 0 -16 10 -16 40 l0 40 45 0 45 0 0 -40z m-1276 -2 c-5 -8 2 -9 24 -5
29 6 32 4 32 -18 0 -22 -3 -24 -32 -18 -30 6 -32 5 -19 -10 12 -15 11 -17 -7
-17 -16 0 -21 8 -24 40 -3 34 -1 40 15 40 11 0 15 -4 11 -12z m1266 -77 c0
-14 -8 -21 -27 -24 -27 -4 -27 -4 -5 -12 25 -8 30 -35 7 -35 -8 0 -15 4 -15 8
0 5 -11 15 -25 22 -35 19 -28 44 15 51 19 4 38 7 43 8 4 0 7 -8 7 -18z m-1194
-27 c4 -14 2 -30 -5 -37 -8 -8 -11 -5 -11 14 l-1 24 -15 -27 c-8 -16 -19 -28
-24 -28 -12 0 -30 33 -30 54 0 25 20 19 21 -6 1 -21 2 -20 11 5 13 35 45 36
54 1z m1140 -57 c10 -1 20 -7 22 -12 5 -20 -17 -65 -32 -65 -19 0 -20 12 -3
29 10 10 9 11 -5 6 -11 -4 -18 0 -21 12 -4 14 -5 14 -6 -4 -1 -13 -7 -23 -16
-23 -19 0 -19 2 0 47 12 28 18 33 28 24 8 -6 22 -12 33 -14z m-1118 -9 c21
-21 13 -45 -22 -66 l-35 -21 -10 32 c-13 38 -11 51 7 54 8 1 16 4 20 7 9 10
27 7 40 -6z m36 -74 c4 -10 -2 -24 -16 -37 -21 -18 -21 -19 -3 -12 32 12 47
11 52 -2 3 -8 -3 -13 -14 -13 -10 0 -28 -7 -40 -15 -19 -13 -22 -13 -37 9 -14
23 -14 26 12 55 31 35 38 37 46 15z m1026 1 c7 -8 19 -15 26 -15 20 0 17 -17
-7 -51 -23 -32 -44 -37 -53 -13 -3 9 -13 14 -21 10 -8 -3 -17 -1 -20 3 -7 12
22 34 34 27 5 -4 12 -2 16 4 3 5 -1 10 -9 10 -19 0 -21 11 -4 28 16 16 23 15
38 -3z m-135 -146 c-1 -67 -3 -73 -30 -95 l-30 -24 -5 62 c-5 61 -4 63 30 95
19 18 35 33 35 33 0 0 0 -32 0 -71z m-726 -56 c1 -35 -3 -63 -7 -63 -4 0 -23
13 -41 28 -29 24 -32 31 -23 48 6 11 8 40 5 64 l-6 45 36 -30 c34 -28 36 -33
36 -92z"/>
<path d="M985 1470 c-3 -5 -1 -10 4 -10 6 0 11 5 11 10 0 6 -2 10 -4 10 -3 0
-8 -4 -11 -10z"/>
<path d="M1090 1419 c0 -5 5 -7 10 -4 6 3 10 8 10 11 0 2 -4 4 -10 4 -5 0 -10
-5 -10 -11z"/>
<path d="M375 1000 c3 -5 8 -10 11 -10 2 0 4 5 4 10 0 6 -5 10 -11 10 -5 0 -7
-4 -4 -10z"/>
<path d="M906 1289 c-168 -25 -316 -158 -361 -323 -26 -97 -17 -224 22 -308
42 -90 119 -170 205 -213 39 -19 77 -35 84 -35 8 0 14 -6 14 -14 0 -8 7 -17
16 -20 26 -10 29 -7 8 9 -18 14 -18 15 11 40 l30 27 -31 -20 -30 -21 -58 24
c-114 46 -193 123 -244 235 -51 113 -40 287 25 398 62 106 194 196 303 209 30
3 62 9 70 14 17 10 16 10 -64 -2z"/>
<path d="M1045 1279 c85 -12 192 -68 249 -129 158 -169 165 -424 15 -594 -73
-83 -211 -159 -239 -133 -10 9 -12 8 -7 -5 6 -18 -7 -33 -38 -41 -15 -4 -14
-5 7 -6 15 0 35 7 45 17 10 10 43 28 73 41 190 75 309 292 271 493 -30 162
-159 308 -310 352 -30 9 -71 15 -90 15 -27 -1 -20 -4 24 -10z"/>
<path d="M970 1253 c1 -13 39 -79 40 -69 0 18 -24 76 -32 76 -4 0 -8 -3 -8 -7z"/>
<path d="M911 1245 c0 -5 11 -23 24 -40 14 -16 25 -25 25 -20 0 6 -11 24 -25
40 -13 17 -24 26 -24 20z"/>
<path d="M1030 1239 c0 -5 5 -7 10 -4 6 3 10 8 10 11 0 2 -4 4 -10 4 -5 0 -10
-5 -10 -11z"/>
<path d="M1066 1226 c-3 -13 -9 -31 -12 -40 -3 -9 -2 -16 3 -16 13 0 33 69 23
75 -4 3 -11 -6 -14 -19z"/>
<path d="M803 1205 c2 -15 9 -19 26 -17 13 2 28 -2 32 -10 7 -10 9 -9 9 5 0
12 -8 17 -29 17 -16 0 -32 6 -35 13 -3 6 -4 3 -3 -8z"/>
<path d="M1224 1165 c-9 -22 1 -29 15 -11 8 10 9 16 1 21 -5 3 -13 -1 -16 -10z"/>
<path d="M1098 1163 c7 -3 16 -2 19 1 4 3 -2 6 -13 5 -11 0 -14 -3 -6 -6z"/>
<path d="M1190 1150 c0 -11 -4 -20 -10 -20 -15 0 -12 -12 11 -40 19 -22 22
-23 30 -8 6 11 16 15 26 11 13 -5 15 -2 11 15 -4 12 -2 22 3 22 5 0 9 5 9 10
0 6 -7 10 -15 10 -9 0 -15 -9 -15 -22 0 -20 -1 -20 -19 -4 -11 10 -17 24 -14
32 3 8 0 14 -6 14 -6 0 -11 -9 -11 -20z"/>
<path d="M692 1143 c2 -11 11 -17 21 -15 9 2 17 -2 17 -8 0 -5 -4 -10 -10 -10
-12 0 -14 -47 -2 -54 4 -2 18 6 30 19 17 18 20 26 10 32 -7 4 -13 15 -13 23 0
9 -7 14 -17 12 -10 -2 -18 2 -18 8 0 5 -5 10 -11 10 -6 0 -9 -8 -7 -17z"/>
<path d="M985 1140 c90 -8 103 -12 162 -52 55 -37 92 -87 114 -151 10 -29 18
-43 19 -31 0 37 -51 123 -101 168 -61 55 -122 76 -208 74 l-66 -1 80 -7z"/>
<path d="M830 1114 c-25 -14 -54 -33 -64 -42 -22 -20 -76 -102 -76 -116 0 -5
13 11 29 36 39 61 76 95 136 124 28 13 43 24 35 24 -8 0 -35 -12 -60 -26z"/>
<path d="M674 1104 c2 -16 8 -30 14 -32 6 -2 10 8 8 24 -2 16 -8 30 -14 32 -6
2 -10 -8 -8 -24z"/>
<path d="M1279 1050 c-31 -25 -13 -26 26 0 20 13 24 20 14 20 -9 0 -27 -9 -40
-20z"/>
<path d="M935 1053 c-62 -13 -95 -44 -95 -87 0 -8 -7 -17 -16 -20 -12 -4 -15
-2 -10 9 10 26 0 16 -32 -34 -26 -39 -32 -60 -32 -102 -1 -30 -7 -65 -14 -79
-10 -17 -11 -30 -5 -42 6 -11 6 -18 1 -18 -5 0 -19 21 -30 48 -12 26 -21 41
-22 33 0 -8 14 -38 30 -68 17 -29 30 -59 30 -67 0 -7 19 -30 43 -50 23 -19 51
-45 63 -56 25 -24 50 -26 58 -4 7 19 -2 37 -15 29 -5 -4 -9 0 -9 8 0 23 28 28
61 11 30 -15 30 -15 27 8 -2 19 -10 24 -40 26 -21 2 -38 7 -38 12 0 5 -15 13
-32 18 -29 7 -33 13 -36 43 -3 34 -2 36 26 31 28 -4 29 -2 28 30 -1 29 2 33
27 36 27 3 31 10 28 45 -2 12 5 17 23 17 32 0 35 29 6 55 -22 20 -26 40 -8 51
8 5 9 2 5 -10 -4 -9 -3 -14 2 -11 5 3 12 1 16 -5 9 -15 35 -12 42 5 3 9 -3 25
-13 36 -14 15 -15 22 -6 28 10 6 9 11 -3 21 -11 9 -14 22 -10 37 6 24 -3 27
-50 16z m-15 -83 c0 -5 -5 -10 -11 -10 -5 0 -7 5 -4 10 3 6 8 10 11 10 2 0 4
-4 4 -10z m70 -30 c0 -5 -2 -10 -4 -10 -3 0 -8 5 -11 10 -3 6 -1 10 4 10 6 0
11 -4 11 -10z m-96 -349 c3 -5 -3 -11 -14 -14 -20 -5 -35 5 -23 17 9 9 31 7
37 -3z"/>
<path d="M1080 1050 c0 -6 6 -10 13 -10 8 0 7 -3 -3 -10 -12 -7 -12 -12 -2
-22 16 -16 15 -28 -3 -28 -20 0 -20 -39 0 -46 8 -4 22 -1 30 6 16 13 20 7 27
-34 5 -34 25 -28 32 10 5 26 3 41 -8 53 -9 10 -16 25 -16 34 0 8 -9 19 -20 22
-11 3 -20 10 -20 15 0 4 -7 10 -15 14 -8 3 -15 1 -15 -4z"/>
<path d="M1135 1040 c3 -5 8 -10 11 -10 2 0 4 5 4 10 0 6 -5 10 -11 10 -5 0
-7 -4 -4 -10z"/>
<path d="M1160 1010 c0 -5 4 -10 9 -10 9 0 24 -48 26 -85 1 -11 -4 -31 -10
-45 -7 -14 -15 -51 -17 -82 -5 -65 -1 -65 54 -3 32 36 36 45 33 91 -1 28 -10
64 -19 82 -22 42 -76 80 -76 52z"/>
<path d="M1318 989 c-10 -5 -18 -15 -18 -21 0 -7 5 -6 15 2 8 7 24 10 36 7 16
-4 18 -3 8 9 -13 16 -18 17 -41 3z"/>
<path d="M590 980 c0 -4 8 -10 18 -13 9 -2 25 -8 35 -12 9 -4 17 -3 17 2 0 5
-16 14 -35 20 -19 6 -35 8 -35 3z"/>
<path d="M676 918 c-3 -13 -5 -50 -4 -83 1 -59 1 -58 8 20 7 84 6 100 -4 63z"/>
<path d="M1351 930 c-8 -4 -21 -6 -29 -2 -10 3 -13 1 -8 -6 9 -15 43 -16 51
-1 10 15 2 20 -14 9z"/>
<path d="M577 923 c-13 -13 -7 -21 13 -16 11 3 17 9 14 14 -6 11 -18 12 -27 2z"/>
<path d="M1357 893 c-4 -3 -7 -15 -7 -25 0 -10 -7 -18 -17 -18 -13 0 -14 -3
-5 -12 14 -14 28 -3 34 27 2 11 10 19 17 17 7 -1 10 2 6 8 -7 12 -19 13 -28 3z"/>
<path d="M1117 884 c-11 -11 3 -24 26 -23 15 0 17 2 7 6 -8 3 -18 10 -21 15
-3 4 -8 5 -12 2z"/>
<path d="M564 871 c7 -11 76 -20 76 -10 0 8 -36 19 -63 19 -10 0 -16 -4 -13
-9z"/>
<path d="M991 864 c0 -11 3 -14 6 -6 3 7 2 16 -1 19 -3 4 -6 -2 -5 -13z"/>
<path d="M1282 840 c0 -19 2 -27 5 -17 2 9 2 25 0 35 -3 9 -5 1 -5 -18z"/>
<path d="M1037 838 c-16 -12 -18 -40 -5 -54 11 -11 46 6 51 25 4 18 -9 41 -23
41 -3 0 -14 -6 -23 -12z"/>
<path d="M576 832 c-2 -4 10 -8 29 -8 19 0 31 4 29 8 -3 4 -16 8 -29 8 -13 0
-26 -4 -29 -8z"/>
<path d="M1263 757 c-16 -58 -67 -124 -127 -164 -51 -35 -54 -43 -8 -19 66 34
164 175 150 216 -2 6 -9 -9 -15 -33z"/>
<path d="M1310 792 c0 -5 16 -12 35 -14 19 -2 35 0 35 4 0 4 -9 8 -19 8 -11 0
-26 3 -35 6 -9 3 -16 2 -16 -4z"/>
<path d="M625 780 c-4 -7 -18 -9 -32 -5 -16 4 -22 2 -18 -5 8 -13 52 -13 60 1
4 6 5 13 2 15 -3 3 -8 0 -12 -6z"/>
<path d="M602 738 c-7 -7 -12 -17 -12 -22 0 -6 5 -5 12 2 7 7 20 12 31 12 10
0 15 5 12 10 -8 14 -28 13 -43 -2z"/>
<path d="M1300 740 c0 -4 14 -13 31 -19 39 -13 42 -14 35 -2 -8 13 -66 32 -66
21z"/>
<path d="M1123 708 c-31 -35 -40 -56 -14 -33 21 18 46 55 38 55 -2 0 -13 -10
-24 -22z"/>
<path d="M633 687 c-18 -6 -33 -14 -33 -18 0 -12 4 -11 35 3 34 15 40 6 20
-32 -22 -43 -12 -49 12 -7 27 45 13 67 -34 54z"/>
<path d="M1276 683 c-5 -11 2 -24 21 -39 15 -12 30 -20 33 -17 3 2 -6 14 -20
25 -14 11 -24 27 -22 34 4 20 -5 17 -12 -3z"/>
<path d="M1055 616 c-9 -14 -15 -31 -13 -38 3 -7 12 3 21 21 21 41 15 53 -8
17z"/>
<path d="M705 620 c-3 -5 -1 -10 4 -10 6 0 11 5 11 10 0 6 -2 10 -4 10 -3 0
-8 -4 -11 -10z"/>
<path d="M1240 620 c0 -4 8 -10 18 -14 9 -3 24 -9 32 -13 12 -5 13 -4 3 9 -7
8 -11 17 -9 19 2 2 -7 5 -20 5 -13 1 -24 -2 -24 -6z"/>
<path d="M1023 505 c-7 -8 -9 -16 -4 -19 5 -3 12 1 15 10 8 22 4 25 -11 9z"/>
<path d="M927 480 c3 -11 7 -20 9 -20 2 0 4 9 4 20 0 11 -4 20 -9 20 -5 0 -7
-9 -4 -20z"/>
<path d="M967 403 c-12 -12 -7 -22 8 -17 8 4 15 10 15 15 0 11 -14 12 -23 2z"/>
<path d="M1190 360 c-8 -5 -10 -10 -5 -10 6 0 17 5 25 10 8 5 11 10 5 10 -5 0
-17 -5 -25 -10z"/>
<path d="M770 350 c8 -5 20 -10 25 -10 6 0 3 5 -5 10 -8 5 -19 10 -25 10 -5 0
-3 -5 5 -10z"/>
<path d="M1107 315 c-60 -16 -62 -19 -41 -39 9 -9 16 -32 16 -51 0 -38 9 -42
54 -25 25 10 26 11 10 29 -13 15 -14 20 -4 24 10 3 8 9 -7 22 -20 16 -20 16 1
12 29 -6 46 6 38 26 -7 19 -4 19 -67 2z"/>
<path d="M820 298 c0 -14 -9 -34 -21 -47 -24 -26 -19 -51 11 -51 13 0 20 7 20
20 0 20 11 26 23 13 4 -3 2 -12 -4 -19 -11 -14 -6 -18 32 -27 26 -7 26 -6 25
54 -1 55 -3 60 -26 65 -14 3 -33 8 -42 11 -14 3 -18 -2 -18 -19z m40 -38 c0
-5 -4 -10 -10 -10 -5 0 -10 5 -10 10 0 6 5 10 10 10 6 0 10 -4 10 -10z"/>
<path d="M952 288 c-20 -20 -14 -37 21 -59 22 -14 25 -19 10 -14 -28 8 -44 -1
-36 -20 5 -15 48 -20 77 -9 26 10 20 53 -9 66 -14 6 -25 16 -25 21 0 5 7 4 15
-3 16 -14 35 -6 35 16 0 18 -70 20 -88 2z"/>
<path d="M1380 1295 c-10 -12 -10 -15 3 -15 8 0 17 7 21 15 3 8 2 15 -3 15 -5
0 -14 -7 -21 -15z"/>
<path d="M1590 930 c0 -5 5 -10 11 -10 5 0 7 5 4 10 -3 6 -8 10 -11 10 -2 0
-4 -4 -4 -10z"/>
<path d="M400 625 c-24 -14 -24 -14 -3 -15 12 0 25 5 28 11 11 17 2 18 -25 4z"/>
<path d="M1500 519 c0 -5 5 -7 10 -4 6 3 10 8 10 11 0 2 -4 4 -10 4 -5 0 -10
-5 -10 -11z"/>
</g>
</svg>
