<?xml version="1.0" standalone="no"?>
<!DOCTYPE svg PUBLIC "-//W3C//DTD SVG 20010904//EN"
 "http://www.w3.org/TR/2001/REC-SVG-20010904/DTD/svg10.dtd">
<svg version="1.0" xmlns="http://www.w3.org/2000/svg"
 width="2182.000000pt" height="2152.000000pt" viewBox="0 0 2182.000000 2152.000000"
 preserveAspectRatio="xMidYMid meet">

<g transform="translate(0.000000,2152.000000) scale(0.100000,-0.100000)"
fill="#F4D160" stroke="none">
<path d="M10575 19569 c-327 -17 -666 -43 -755 -59 -30 -5 -111 -17 -180 -26
-499 -64 -1185 -232 -1695 -413 -246 -88 -364 -134 -570 -224 -88 -38 -191
-82 -229 -98 -69 -29 -375 -185 -566 -289 -190 -103 -557 -330 -730 -451 -148
-104 -326 -234 -370 -270 -25 -20 -77 -61 -116 -90 -95 -72 -288 -235 -459
-387 -421 -376 -876 -882 -1233 -1370 -421 -577 -837 -1331 -1072 -1942 -18
-47 -44 -112 -57 -145 -61 -152 -203 -580 -243 -730 -120 -453 -143 -557 -216
-975 -35 -201 -41 -242 -63 -425 -85 -723 -73 -1640 30 -2310 11 -66 25 -159
48 -305 6 -36 20 -108 31 -160 11 -52 32 -147 45 -210 79 -371 215 -831 352
-1190 78 -207 85 -223 165 -410 94 -218 269 -577 362 -743 36 -65 66 -120 66
-122 0 -2 46 -79 101 -172 171 -284 500 -766 535 -786 9 -5 23 -7 33 -4 10 2
132 80 272 172 140 92 304 200 364 240 61 40 232 152 380 251 149 98 333 219
410 269 77 49 158 103 180 118 22 15 88 59 146 97 59 38 109 77 113 86 6 17 1
25 -110 172 -309 408 -647 1013 -829 1482 -37 96 -76 198 -88 225 -30 75 -103
305 -138 435 -64 237 -99 377 -108 425 -5 28 -18 97 -29 155 -27 141 -48 279
-66 430 -8 69 -20 168 -27 220 -7 55 -14 274 -17 520 -4 440 -3 468 44 890 16
140 68 468 84 530 5 19 23 96 40 170 17 74 40 167 51 205 11 39 27 93 34 120
147 520 366 1030 651 1520 86 146 237 381 318 493 34 46 75 104 93 128 236
328 649 764 1068 1130 168 146 536 412 770 556 357 219 786 433 1130 563 151
58 403 143 505 172 47 13 108 31 135 39 112 33 531 123 670 144 448 69 658 85
1105 85 402 -1 552 -11 900 -60 155 -22 397 -64 500 -88 36 -8 108 -25 160
-36 52 -12 133 -33 180 -47 47 -13 110 -31 140 -40 86 -23 425 -138 526 -177
224 -88 524 -228 725 -337 74 -41 148 -80 164 -89 17 -8 82 -46 145 -84 511
-310 1015 -720 1441 -1172 86 -92 278 -314 324 -376 11 -14 76 -100 144 -190
454 -600 820 -1323 1042 -2064 38 -125 95 -340 108 -403 5 -26 18 -90 29 -142
55 -257 96 -545 127 -900 17 -196 20 -741 5 -875 -6 -44 -12 -120 -15 -170 -8
-117 -52 -455 -80 -610 -39 -209 -89 -429 -131 -570 -14 -50 -30 -103 -34
-120 -43 -161 -105 -337 -213 -610 -156 -395 -304 -681 -588 -1134 -46 -74
-138 -205 -239 -341 -88 -119 -97 -135 -82 -153 7 -8 83 -60 169 -116 87 -56
214 -138 284 -184 111 -73 335 -217 489 -315 30 -19 84 -54 120 -77 36 -23 97
-62 135 -87 264 -170 466 -301 561 -364 61 -41 118 -74 127 -74 20 0 81 81
241 321 184 275 267 406 345 544 89 158 249 459 296 560 21 44 58 123 82 175
25 52 69 154 99 225 30 72 63 150 74 175 75 174 226 611 284 820 19 69 45 163
59 210 21 75 68 270 112 470 8 36 22 106 30 155 8 50 24 137 34 195 159 873
161 2029 6 2925 -8 44 -21 123 -30 175 -63 369 -170 785 -325 1260 -68 208
-221 594 -324 813 -25 55 -46 101 -46 104 0 9 -192 387 -252 498 -110 199
-323 549 -436 713 -88 127 -276 387 -311 429 -17 21 -80 99 -139 173 -141 179
-174 218 -321 379 -291 318 -623 640 -869 841 -57 47 -156 128 -220 180 -65
52 -175 138 -247 189 -71 52 -146 106 -165 121 -45 34 -368 247 -453 299 -146
89 -323 189 -525 297 -215 115 -273 144 -433 214 -49 22 -131 59 -181 81 -51
23 -113 50 -138 59 -455 178 -718 269 -985 340 -66 18 -147 40 -180 50 -33 10
-94 26 -135 34 -41 9 -133 29 -205 45 -71 16 -184 38 -250 50 -66 12 -151 28
-190 36 -38 8 -144 24 -235 35 -91 12 -174 23 -185 26 -84 19 -877 64 -1090
62 -88 0 -232 -5 -320 -9z m715 -690 c121 -13 202 -39 265 -87 93 -70 130
-152 123 -269 -5 -85 -28 -134 -93 -198 -38 -38 -67 -56 -120 -75 -63 -22 -90
-25 -265 -30 l-195 -5 -9 -38 c-14 -57 1 -90 45 -97 58 -10 59 -11 59 -136 0
-110 -1 -115 -23 -123 -13 -5 -153 -7 -311 -4 l-288 6 -15 24 c-13 20 -15 42
-10 120 4 52 12 102 18 109 6 8 24 14 38 14 62 0 62 0 59 279 l-3 254 -45 11
-45 11 -3 111 c-2 95 0 115 15 129 15 16 43 17 362 11 190 -4 389 -11 441 -17z
m-1141 -28 c18 -18 34 -97 47 -240 8 -84 9 -84 -141 -108 -118 -19 -113 -20
-150 42 -10 17 -18 17 -108 5 -55 -7 -102 -18 -108 -26 -7 -9 -9 -33 -4 -70 8
-63 25 -77 85 -63 51 12 128 11 136 -2 4 -6 13 -48 21 -93 13 -78 13 -82 -7
-98 -11 -9 -51 -21 -89 -28 -39 -6 -75 -18 -82 -26 -14 -17 -6 -109 12 -130
17 -21 52 -19 196 12 16 3 24 14 29 39 3 19 11 38 18 43 6 5 62 17 124 27 98
15 115 16 128 4 14 -15 38 -134 50 -251 6 -64 6 -68 -17 -78 -13 -5 -116 -23
-229 -40 -113 -16 -311 -45 -440 -64 -129 -20 -250 -38 -267 -40 -49 -7 -69
17 -82 95 -19 111 -15 137 19 157 16 9 32 23 35 31 3 7 -3 64 -14 125 -11 61
-27 163 -36 226 -20 140 -27 160 -58 160 -41 0 -56 21 -67 95 -6 39 -13 86
-17 106 -4 31 -2 39 18 52 13 8 42 18 64 21 40 5 129 19 380 57 230 34 328 49
415 63 116 18 118 18 139 -3z m2066 -46 c245 -50 296 -62 307 -73 9 -9 -23
-200 -38 -223 -3 -5 -20 -15 -38 -23 -27 -11 -35 -22 -45 -60 -13 -54 -3 -83
32 -91 12 -2 53 -12 90 -21 37 -9 74 -13 82 -10 15 5 35 66 35 107 0 17 -9 32
-25 43 -31 20 -31 36 -4 154 19 79 25 93 45 98 17 5 316 -50 501 -91 39 -9 43
-33 21 -135 -23 -108 -28 -116 -69 -125 -16 -4 -33 -14 -38 -23 -9 -18 -101
-459 -101 -486 0 -9 10 -20 23 -25 51 -20 52 -53 6 -223 -12 -47 -19 -47 -189
-12 -69 14 -176 36 -239 49 -62 13 -120 30 -128 38 -14 13 -13 26 2 109 18 98
29 119 74 138 23 9 30 21 40 65 15 69 5 92 -47 100 -20 4 -53 11 -72 16 -51
13 -86 11 -100 -6 -6 -8 -14 -41 -17 -74 -5 -52 -3 -60 15 -70 31 -16 33 -35
15 -124 -16 -84 -37 -137 -52 -137 -5 0 -123 23 -261 50 -138 28 -253 50 -256
50 -2 0 -8 9 -14 19 -7 14 -5 46 10 116 21 105 31 125 64 125 35 0 48 16 56
61 4 24 24 124 44 223 20 98 36 190 36 205 0 17 -10 35 -31 52 l-32 26 21 104
c22 108 38 134 77 126 11 -3 101 -21 200 -42z m-3348 -265 c17 -52 32 -101 32
-108 1 -6 -10 -22 -24 -34 -15 -13 -25 -32 -25 -48 0 -15 30 -112 66 -216 36
-104 68 -198 71 -209 9 -33 34 -55 63 -55 38 0 54 -23 86 -123 21 -64 26 -92
18 -104 -9 -14 -112 -52 -408 -149 -129 -43 -128 -43 -170 78 -32 93 -32 115
-4 145 21 23 21 24 5 76 -27 83 -27 83 -89 68 -79 -20 -158 -58 -158 -75 0 -8
9 -40 21 -71 18 -49 24 -55 48 -55 37 0 44 -9 80 -110 35 -96 38 -126 14 -138
-40 -21 -472 -162 -496 -162 -27 0 -26 -2 -68 115 -35 97 -36 108 -4 129 14 9
25 26 25 39 0 22 -144 455 -156 466 -3 3 -24 10 -47 16 -42 10 -42 10 -74 100
-34 96 -39 130 -22 140 12 8 465 165 495 172 27 6 37 -8 73 -107 37 -100 38
-116 9 -147 -21 -22 -21 -27 -9 -71 20 -78 26 -80 131 -47 50 16 96 35 102 43
9 10 8 28 -3 70 -14 54 -17 57 -49 62 -31 4 -38 12 -62 60 -31 62 -54 151 -45
174 3 8 21 19 39 25 18 5 123 41 233 80 122 42 214 69 235 68 35 -2 35 -2 67
-97z m4783 -91 c58 -22 150 -57 205 -78 55 -21 143 -55 195 -76 52 -20 158
-62 235 -92 77 -30 149 -63 159 -73 19 -19 18 -21 -39 -164 -56 -141 -58 -146
-87 -146 -16 0 -48 8 -71 18 -23 11 -68 29 -99 41 -59 24 -72 38 -62 75 7 28
-13 45 -98 80 -88 36 -107 33 -136 -26 -31 -62 -21 -79 68 -114 39 -15 76 -36
81 -45 9 -18 -22 -119 -52 -168 -18 -27 -33 -27 -118 5 -79 29 -97 27 -111
-13 -6 -16 -15 -36 -20 -45 -14 -24 -13 -53 3 -66 12 -9 124 -58 160 -69 12
-4 30 6 53 28 l34 33 52 -21 c29 -12 76 -29 103 -39 28 -9 59 -25 69 -35 19
-18 19 -21 4 -66 -33 -97 -83 -220 -97 -236 -15 -19 -52 -22 -67 -7 -5 5 -43
21 -84 36 -41 14 -106 39 -145 54 -38 16 -111 45 -162 64 -50 20 -106 42 -125
50 -18 8 -105 43 -193 77 -88 34 -166 66 -172 71 -7 6 -13 20 -13 32 0 29 66
187 82 198 7 4 27 8 44 8 38 0 49 12 73 81 10 30 48 130 85 222 36 93 63 174
59 180 -4 7 -17 20 -30 30 -13 10 -23 24 -23 31 0 21 71 191 84 198 21 14 52
8 156 -33z m-6320 -369 c25 -13 132 -215 128 -242 -2 -16 -28 -35 -99 -72
l-96 -51 -56 29 c-46 23 -63 27 -96 21 -54 -9 -91 -39 -91 -74 0 -56 13 -59
265 -63 l230 -3 63 -34 c35 -19 81 -54 102 -79 111 -126 105 -314 -14 -436
-72 -74 -201 -136 -285 -136 -44 0 -54 -7 -72 -44 -10 -20 -40 -42 -102 -75
l-89 -46 -24 30 c-36 44 -134 233 -134 258 0 17 20 33 85 70 47 26 95 47 107
47 13 0 41 -12 63 -25 61 -38 138 -32 185 15 27 27 25 56 -7 86 l-26 24 -206
-2 c-227 -2 -251 3 -332 62 -59 43 -104 109 -124 185 -17 62 -17 68 -1 128 10
34 32 83 50 110 62 91 195 167 291 167 24 0 49 6 55 13 5 6 20 25 31 40 12 15
55 45 98 67 89 46 78 42 101 30z m7523 -143 c29 -18 99 -62 157 -97 427 -258
493 -302 569 -386 62 -66 85 -124 86 -209 0 -123 -71 -228 -182 -268 -26 -9
-58 -17 -70 -17 -45 0 -53 -23 -53 -145 0 -106 2 -115 25 -143 14 -17 25 -37
25 -46 0 -43 -102 -196 -131 -196 -11 0 -44 15 -72 34 -29 18 -81 50 -117 71
-36 21 -80 49 -97 62 l-33 24 1 127 c1 70 4 172 8 227 8 127 6 140 -34 165
-49 30 -70 26 -103 -22 -41 -61 -43 -73 -21 -101 10 -14 19 -34 19 -44 0 -22
-94 -174 -115 -185 -17 -10 -41 1 -175 82 -319 192 -320 193 -320 223 0 23 99
184 118 192 7 3 23 0 34 -6 32 -17 61 3 98 68 18 32 73 122 121 200 49 78 89
150 89 161 0 10 -9 27 -20 37 -11 10 -20 25 -20 33 0 23 89 170 113 187 25 18
31 16 100 -28z m-8871 -648 c28 -13 138 -152 138 -175 0 -9 -9 -27 -20 -41
-23 -30 -21 -36 47 -114 186 -215 429 -504 434 -517 3 -10 4 -22 2 -29 -7 -18
-227 -201 -254 -211 -23 -9 -38 -6 -553 127 -87 23 -161 41 -163 41 -1 0 -3
-8 -3 -19 0 -10 39 -64 87 -121 93 -109 85 -104 164 -85 23 6 34 -2 98 -74 39
-45 71 -87 71 -95 0 -17 -69 -84 -160 -157 -36 -28 -84 -69 -107 -90 -24 -22
-49 -39 -56 -39 -20 0 -157 157 -157 179 0 10 9 30 20 44 11 14 20 30 20 37 0
6 -22 35 -48 63 -27 29 -94 106 -149 172 -138 164 -134 161 -177 141 -19 -9
-39 -16 -44 -16 -6 0 -37 30 -69 67 -32 37 -64 74 -71 82 -7 7 -12 21 -10 31
3 17 160 162 248 230 25 19 62 49 83 67 47 42 64 42 230 -1 255 -67 412 -106
424 -106 24 0 13 21 -53 100 -48 59 -72 80 -89 80 -13 0 -27 -4 -30 -10 -15
-24 -48 -5 -114 68 -39 43 -71 86 -71 98 0 13 26 44 73 86 89 80 228 198 232
198 2 0 14 -5 27 -11z m10280 -295 c323 -290 413 -388 468 -507 116 -249 -4
-559 -264 -687 -214 -105 -390 -71 -616 119 -82 69 -464 413 -472 425 -16 23
-5 44 67 120 l73 80 40 -13 c24 -8 45 -10 54 -5 8 5 52 52 98 104 46 52 117
130 157 172 73 78 83 100 62 140 -6 11 -8 30 -5 41 8 32 132 157 156 157 11 0
88 -61 182 -146z m-11425 -922 c61 -52 63 -56 60 -99 -2 -43 -1 -45 38 -59
197 -69 456 -154 472 -154 11 0 26 7 33 15 7 8 22 15 34 15 24 0 159 -108 177
-141 13 -24 18 -16 -119 -180 -204 -245 -206 -248 -229 -248 -12 -1 -48 20
-80 47 -86 72 -89 77 -74 119 11 29 11 37 0 48 -19 17 -77 35 -93 29 -16 -6
-147 -157 -159 -183 -14 -29 27 -101 58 -101 13 0 27 5 30 10 3 6 15 10 25 10
22 0 170 -116 170 -133 0 -16 -22 -48 -112 -159 -144 -178 -151 -182 -215
-125 -21 18 -55 46 -75 61 -46 34 -54 57 -32 90 15 25 15 28 -15 85 -17 33
-71 128 -121 210 -49 83 -97 165 -106 182 -13 25 -20 30 -40 25 -13 -3 -35 -9
-49 -12 -20 -5 -37 4 -87 47 -75 62 -98 87 -98 104 0 11 50 75 255 320 46 55
111 134 145 175 35 41 70 78 79 81 20 8 49 -9 128 -79z m12418 -113 c106 -39
188 -138 254 -301 7 -20 18 -28 34 -28 23 0 51 -29 120 -122 46 -64 47 -63
-112 -188 -35 -27 -70 -50 -77 -50 -14 0 -29 15 -104 105 l-42 50 8 65 c4 36
7 75 7 88 -1 31 -43 91 -70 98 -29 8 -62 -12 -69 -42 -7 -25 -4 -40 41 -262
32 -157 32 -205 -2 -289 -49 -124 -169 -213 -286 -213 -161 0 -301 109 -368
285 -28 74 -35 85 -57 85 -26 0 -52 25 -121 113 -48 63 -48 80 1 114 18 12 44
33 58 45 57 53 134 108 149 108 23 0 29 -6 95 -84 63 -76 65 -85 35 -182 -10
-34 -10 -47 0 -72 27 -65 88 -100 129 -74 23 15 29 65 16 127 -46 212 -54 257
-54 321 0 92 22 152 76 213 92 103 217 136 339 90z m-13150 -797 c79 -50 93
-68 75 -102 -27 -50 -11 -63 353 -281 71 -42 98 -44 117 -8 15 26 43 24 98 -8
85 -48 132 -86 132 -105 0 -10 -37 -78 -83 -151 -45 -72 -109 -176 -141 -229
-32 -53 -67 -104 -77 -114 -18 -16 -22 -16 -52 -1 -17 8 -61 35 -97 59 -56 38
-65 47 -62 71 1 15 3 39 5 54 2 24 -10 34 -129 107 -72 45 -164 102 -205 129
-42 26 -85 47 -96 47 -10 0 -29 -11 -41 -25 -12 -14 -28 -25 -35 -25 -7 0 -53
24 -102 53 -63 38 -91 60 -93 75 -2 14 46 102 136 249 77 126 148 236 157 246
22 25 47 18 140 -41z m14043 -374 c5 -7 112 -216 237 -465 200 -395 227 -454
215 -468 -24 -29 -270 -147 -294 -141 -15 4 -37 36 -74 111 -28 58 -52 111
-52 118 0 8 11 24 25 37 14 13 25 33 25 44 -1 28 -70 157 -92 170 -22 14 -112
-34 -116 -63 -2 -10 9 -43 23 -71 38 -76 33 -88 -57 -135 -91 -47 -98 -45
-143 36 -36 64 -66 73 -130 36 -46 -26 -54 -51 -30 -98 16 -30 16 -33 -2 -49
-29 -28 -179 -102 -199 -98 -14 2 -60 85 -159 281 -112 223 -138 281 -129 295
5 9 48 37 95 61 94 49 127 50 147 6 7 -14 19 -28 27 -31 16 -6 428 196 458
225 16 15 16 21 4 52 -8 19 -11 43 -8 53 8 21 164 105 197 105 12 1 26 -5 32
-11z m-13830 -614 c92 -42 173 -81 180 -87 18 -14 15 -28 -24 -114 -20 -43
-80 -175 -134 -294 -211 -466 -239 -523 -261 -527 -8 -1 -59 18 -113 43 l-99
46 6 44 c8 55 12 52 -184 141 -301 137 -296 136 -317 88 -8 -16 -20 -24 -36
-24 -30 0 -186 71 -204 93 -15 17 -20 4 130 332 33 72 67 147 75 168 25 62 40
64 148 17 113 -50 122 -59 105 -100 -7 -16 -10 -37 -6 -45 3 -9 36 -30 73 -46
38 -17 95 -43 128 -58 157 -73 255 -112 272 -109 16 3 77 113 97 175 8 25 -22
58 -62 68 -34 8 -62 33 -62 55 0 43 92 210 116 210 3 0 81 -34 172 -76z
m14400 -582 c11 -26 37 -101 58 -167 20 -66 48 -157 62 -203 19 -61 23 -88 16
-100 -17 -27 -162 -73 -209 -67 -82 12 -114 7 -280 -47 -243 -78 -275 -98
-275 -168 0 -30 7 -47 25 -65 37 -38 95 -33 264 20 78 25 146 45 151 45 5 0
34 9 64 20 41 16 57 28 66 50 13 30 48 48 167 83 48 15 54 14 72 -1 11 -9 31
-57 46 -107 15 -49 38 -123 51 -163 18 -53 22 -78 14 -92 -8 -16 -175 -80
-208 -80 -6 0 -24 14 -41 32 l-29 32 -174 -54 c-95 -29 -195 -59 -223 -67 -27
-8 -90 -15 -140 -16 -76 -1 -98 2 -140 23 -106 51 -187 161 -236 320 -33 105
-34 264 -2 332 54 117 158 183 418 263 234 72 220 65 223 107 4 46 13 53 114
88 118 39 122 39 146 -18z m-15612 -451 c94 -25 114 -37 114 -65 0 -45 19 -49
142 -37 62 6 180 18 261 26 148 14 171 21 182 55 3 10 16 21 29 24 31 8 206
-44 219 -65 14 -23 -116 -498 -142 -520 -18 -15 -26 -14 -105 7 -47 12 -90 25
-96 29 -5 3 -10 22 -10 41 0 46 -32 63 -90 45 -31 -9 -41 -18 -46 -39 -4 -15
-15 -58 -25 -97 -27 -100 -25 -129 10 -154 40 -29 69 -27 83 5 13 29 32 29
141 1 69 -18 87 -31 87 -63 0 -31 -75 -307 -98 -359 -9 -21 -17 -64 -17 -95
-1 -94 -16 -283 -26 -316 -10 -34 -17 -38 -294 -159 -71 -32 -136 -62 -142
-69 -17 -15 -26 -97 -14 -116 7 -11 29 -15 77 -15 64 0 68 1 84 30 20 36 41
40 158 30 109 -9 114 -15 101 -145 -5 -52 -15 -171 -23 -264 -17 -205 -12
-199 -135 -189 -111 8 -130 15 -137 53 -9 41 -24 51 -86 56 -418 35 -429 36
-449 18 -10 -9 -19 -23 -19 -30 0 -8 -10 -20 -22 -28 -19 -11 -39 -12 -118 -2
-52 7 -101 15 -108 19 -16 11 -15 76 3 278 60 659 71 711 171 806 65 61 117
83 195 83 111 0 152 -20 242 -119 45 -49 42 -49 172 18 74 39 94 54 111 87
l21 39 80 0 c45 0 84 3 88 6 3 4 -15 15 -42 25 -115 42 -113 40 -113 77 0 18
-6 40 -12 49 -12 16 -379 277 -418 298 -23 12 -47 4 -61 -21 -13 -24 -34 -24
-144 5 -109 29 -114 37 -87 132 11 38 32 116 47 174 15 58 42 159 61 225 18
66 38 144 44 173 12 54 41 86 70 77 8 -2 47 -13 86 -24z m15983 -815 c13 -15
73 -454 97 -704 14 -155 14 -180 1 -247 -33 -158 -129 -250 -276 -262 -59 -5
-76 -2 -123 19 -29 14 -70 40 -91 57 -24 21 -43 31 -54 27 -10 -3 -57 -39
-103 -79 -63 -54 -87 -82 -95 -109 -5 -20 -13 -39 -16 -43 -4 -3 -53 -13 -110
-21 -103 -14 -104 -14 -121 7 -10 12 -18 33 -18 48 0 15 -7 72 -15 127 -8 54
-15 122 -15 151 l0 51 116 84 c63 45 145 105 182 131 72 52 93 85 85 132 -10
52 -21 58 -88 50 -68 -7 -85 -18 -85 -50 0 -12 -6 -27 -13 -33 -18 -15 -145
-34 -198 -30 -37 3 -45 7 -51 28 -4 14 -19 129 -33 255 -15 127 -29 238 -31
247 -12 42 62 70 196 72 39 1 46 -2 58 -26 20 -42 44 -51 105 -39 29 5 81 13
117 17 158 16 313 43 321 55 5 8 9 24 9 35 0 30 19 42 81 53 85 14 155 13 168
-3z m-672 -1471 c11 -8 24 -26 27 -39 3 -14 14 -30 24 -35 10 -5 129 -13 264
-17 l246 -7 16 37 16 38 109 -4 c69 -2 115 -8 122 -15 12 -12 6 -244 -21 -763
-13 -251 -15 -258 -46 -266 -34 -9 -285 15 -301 28 -14 11 -17 138 -5 218 6
40 11 46 40 56 19 6 38 17 43 25 5 8 9 56 9 107 0 90 -1 93 -26 102 -32 13
-80 13 -103 0 -14 -7 -20 -27 -25 -92 -4 -45 -12 -88 -18 -95 -14 -17 -144
-17 -178 0 -24 12 -25 17 -26 100 0 48 -5 92 -10 97 -17 17 -128 24 -141 9 -6
-8 -14 -58 -18 -111 l-7 -97 38 -18 c37 -17 39 -21 42 -68 6 -83 -8 -194 -26
-211 -14 -14 -34 -16 -155 -10 -151 8 -163 10 -171 32 -9 24 42 972 54 994 10
18 21 20 108 20 70 0 104 -4 119 -15z m-15379 -382 c5 -10 12 -50 16 -90 8
-89 -1 -99 -87 -108 -81 -9 -91 -15 -91 -60 0 -54 17 -62 110 -54 229 19 410
41 421 51 7 6 13 23 13 38 0 41 19 50 124 61 142 14 140 18 156 -181 5 -63 15
-179 21 -257 9 -93 10 -146 3 -153 -11 -11 -129 -30 -192 -30 -40 0 -44 3 -58
35 -8 20 -21 38 -29 41 -8 3 -83 -1 -167 -10 -84 -8 -193 -18 -241 -22 -98 -8
-122 -24 -111 -73 10 -42 27 -48 108 -43 88 5 92 1 102 -105 9 -99 6 -101
-151 -114 -71 -6 -157 -14 -190 -18 -70 -10 -102 -1 -109 31 -3 13 -15 120
-26 238 -11 118 -25 258 -30 310 -29 273 -41 421 -38 451 4 40 11 43 203 63
190 20 232 20 243 -1z m16016 -924 c50 -12 97 -26 104 -31 17 -15 15 -39 -12
-153 -13 -55 -39 -167 -57 -248 -25 -113 -37 -151 -51 -158 -24 -13 -201 25
-223 48 -8 8 -15 25 -15 39 0 14 -6 27 -14 30 -15 6 -371 -32 -386 -41 -23
-14 -6 -36 53 -71 34 -21 104 -66 156 -101 51 -35 102 -63 112 -63 10 0 26 11
34 24 22 34 37 37 92 21 26 -7 67 -16 91 -20 60 -10 75 -28 67 -81 -15 -104
-75 -348 -87 -356 -14 -9 -43 -6 -149 15 -84 18 -89 21 -89 63 0 20 -8 42 -19
53 -11 11 -142 101 -291 201 -387 258 -404 271 -408 303 -3 27 41 239 59 285
11 28 31 36 139 55 756 134 712 122 771 195 13 16 16 16 123 -9z m-15370 -269
c94 -41 160 -117 197 -229 18 -55 21 -80 17 -166 l-6 -102 28 -17 c24 -14 31
-30 51 -110 12 -51 20 -100 16 -109 -11 -28 -287 -99 -315 -81 -18 12 -48 103
-58 176 -6 41 -4 49 18 70 14 13 35 39 47 58 52 87 -4 204 -80 164 -32 -16
-44 -50 -80 -229 -12 -60 -33 -137 -46 -171 -45 -114 -156 -197 -282 -210 -98
-11 -206 44 -270 136 -55 81 -73 151 -68 262 5 95 4 98 -19 116 -19 13 -31 40
-49 112 -31 117 -31 116 111 154 112 29 147 32 162 14 10 -13 52 -170 52 -196
0 -7 -16 -34 -35 -59 -57 -74 -58 -145 -2 -187 l27 -20 28 21 c22 16 30 36 44
99 47 210 63 273 80 319 20 53 89 131 147 167 77 48 198 56 285 18z m14281
-781 c97 -37 115 -52 115 -95 0 -24 7 -38 23 -48 33 -21 424 -176 445 -176 10
0 28 11 40 25 26 30 41 31 90 6 20 -10 61 -26 90 -35 29 -10 56 -25 61 -34 6
-12 -9 -61 -51 -167 -33 -82 -70 -177 -83 -210 -12 -33 -35 -89 -50 -125 -15
-36 -38 -90 -50 -120 -125 -308 -135 -330 -160 -330 -15 0 -187 66 -250 95
-18 9 -35 26 -38 37 -4 13 12 64 40 130 l45 108 38 0 c50 0 60 12 100 110 30
75 31 82 16 99 -19 21 -85 45 -111 40 -12 -3 -30 -32 -53 -86 -25 -59 -40 -83
-52 -83 -10 0 -53 15 -97 33 -93 40 -97 50 -58 142 15 34 25 71 23 81 -4 23
-84 65 -118 61 -21 -2 -30 -16 -64 -94 l-39 -92 31 -35 c30 -35 31 -37 18 -73
-33 -92 -79 -192 -92 -197 -17 -7 -47 3 -178 58 -61 26 -114 52 -118 59 -15
23 -26 -7 145 412 228 562 216 535 245 535 10 0 53 -14 97 -31z m-13936 -283
c103 -53 190 -168 243 -322 40 -117 47 -211 20 -288 -46 -128 -124 -188 -398
-306 -107 -46 -199 -92 -204 -100 -5 -9 -7 -26 -4 -38 8 -27 -14 -45 -107 -88
-79 -36 -110 -41 -127 -21 -5 6 -46 98 -90 202 -45 105 -88 205 -97 222 -26
51 -13 68 82 113 90 42 117 47 155 29 20 -8 50 1 193 62 191 80 246 109 275
146 30 39 26 88 -10 125 -28 27 -35 30 -72 24 -40 -7 -175 -59 -354 -138 -82
-36 -93 -44 -106 -76 -13 -34 -23 -40 -113 -76 -72 -29 -102 -36 -114 -29 -9
6 -31 46 -49 89 -19 43 -47 107 -63 141 -37 77 -44 113 -27 134 14 17 177 89
201 89 8 0 22 -11 31 -25 9 -14 25 -25 34 -25 21 0 88 26 267 103 169 73 223
88 310 83 52 -2 84 -10 124 -30z m13477 -822 c96 -64 99 -68 99 -122 l0 -46
203 -128 c112 -70 213 -128 225 -128 11 0 31 9 43 21 l22 20 43 -21 c66 -34
147 -90 153 -107 7 -17 -1 -33 -59 -123 -23 -36 -104 -162 -180 -280 -165
-258 -221 -335 -286 -394 -76 -68 -130 -91 -219 -90 -89 0 -155 29 -212 92
-48 53 -57 72 -68 139 -5 31 -13 60 -17 64 -5 4 -62 10 -128 14 -120 7 -121 7
-152 -19 -17 -14 -37 -26 -45 -26 -21 0 -176 98 -187 119 -8 14 9 48 85 169
110 174 105 171 242 160 48 -4 148 -10 223 -14 l137 -7 27 42 c36 54 27 77
-49 115 l-57 29 -20 -22 c-11 -11 -28 -21 -38 -21 -17 0 -134 73 -173 108 -32
27 -33 25 130 277 25 39 55 86 67 105 69 112 76 120 98 120 13 0 54 -21 93
-46z m-12958 -115 c42 -66 105 -164 140 -217 41 -64 61 -105 60 -121 -2 -18
-23 -38 -73 -72 -76 -52 -111 -60 -138 -29 -9 11 -21 20 -26 20 -13 0 -71 -68
-71 -83 0 -15 117 -199 134 -209 16 -11 78 -9 96 2 9 6 15 25 15 52 0 42 1 44
79 96 43 29 86 52 95 50 28 -5 221 -306 221 -345 0 -22 -58 -66 -148 -113
l-43 -22 -38 27 c-35 24 -43 25 -78 16 -42 -12 -376 -85 -434 -95 -44 -8 -63
-27 -54 -56 3 -11 4 -28 0 -39 -6 -19 -164 -121 -188 -121 -17 0 -46 32 -77
85 -13 22 -61 96 -106 165 -167 257 -234 365 -234 381 0 20 30 47 109 98 69
44 92 49 111 26 24 -29 47 -15 106 62 33 42 105 138 162 213 l102 135 -5 50
-6 50 88 57 c48 31 96 57 106 57 12 1 42 -38 95 -120z"/>
<path d="M11016 18634 c-11 -11 -16 -35 -16 -83 0 -89 9 -97 104 -93 94 3 120
21 124 85 3 40 -1 51 -23 71 -39 37 -160 50 -189 20z"/>
<path d="M15053 17476 c-10 -13 -30 -44 -43 -69 -29 -54 -25 -61 57 -108 73
-42 118 -42 155 0 35 39 35 71 3 109 -31 37 -112 92 -136 92 -10 0 -26 -11
-36 -24z"/>
<path d="M16153 16482 c-171 -187 -223 -248 -223 -264 0 -38 99 -98 162 -98
81 0 204 99 263 211 53 101 46 167 -28 247 -38 41 -58 30 -174 -96z"/>
<path d="M4680 15607 c0 -18 82 -154 111 -182 l20 -20 45 48 c26 27 44 55 42
65 -3 18 -137 88 -188 99 -23 4 -30 2 -30 -10z"/>
<path d="M3265 12671 c-100 -7 -110 -26 -38 -67 26 -15 67 -41 90 -57 23 -16
48 -27 56 -24 7 3 21 32 32 66 21 69 12 92 -34 89 -14 -1 -62 -4 -106 -7z"/>
<path d="M2924 11461 c-35 -21 -49 -55 -59 -142 -8 -69 -1 -76 93 -85 96 -9
102 -4 102 98 0 92 -9 115 -55 134 -43 18 -44 18 -81 -5z"/>
<path d="M18795 11793 c-52 -8 -58 -20 -52 -95 6 -75 28 -121 64 -137 39 -18
63 -13 94 18 27 27 29 35 29 106 0 100 -9 115 -63 114 -23 -1 -55 -4 -72 -6z"/>
<path d="M17648 6653 c-37 -44 -68 -113 -68 -153 0 -81 85 -118 149 -65 36 31
91 123 84 142 -6 16 -98 78 -129 87 -13 4 -26 0 -36 -11z"/>
<path d="M4269 6588 c-58 -68 -89 -110 -89 -120 0 -13 35 -9 128 13 113 28
122 36 92 86 -54 90 -70 93 -131 21z"/>
<path d="M10540 16339 c-288 -24 -363 -33 -645 -79 -125 -21 -377 -79 -525
-121 -237 -68 -584 -189 -705 -247 -22 -11 -74 -34 -115 -52 -427 -190 -884
-475 -1280 -799 -341 -279 -690 -645 -956 -1001 -290 -389 -559 -871 -730
-1307 -62 -159 -75 -195 -108 -293 -19 -58 -46 -145 -60 -195 -14 -49 -36
-128 -50 -175 -21 -75 -46 -182 -76 -330 -109 -527 -139 -1243 -74 -1765 41
-333 116 -710 188 -945 72 -233 97 -307 152 -450 218 -574 551 -1148 923
-1593 102 -123 351 -394 427 -467 457 -432 897 -748 1399 -1004 148 -75 212
-106 360 -172 212 -94 750 -271 900 -296 24 -4 26 -44 5 -94 -19 -44 -7 -74
54 -146 77 -92 152 -146 238 -173 40 -13 114 -41 165 -63 120 -54 142 -57 270
-39 59 9 133 19 163 22 77 9 141 54 287 201 147 149 163 155 258 106 71 -37
79 -39 65 -13 -8 16 -5 26 15 49 37 44 32 63 -22 92 -25 13 -70 46 -98 72 -48
43 -90 68 -116 68 -7 0 -8 -20 -4 -55 7 -54 6 -58 -39 -125 -25 -38 -46 -72
-46 -75 0 -13 -86 -121 -147 -186 -65 -69 -66 -69 -120 -69 -29 0 -86 -6 -126
-14 -175 -34 -250 -26 -276 29 -8 17 -19 33 -25 37 -21 14 -81 28 -171 39
-103 12 -126 24 -145 71 -8 18 -28 50 -47 70 -66 75 -58 118 40 213 95 93 186
164 349 274 147 99 143 94 271 301 94 151 90 140 74 250 -14 99 -13 120 7 120
31 0 76 -84 145 -269 70 -189 113 -285 133 -297 18 -11 -13 119 -52 216 -10
25 -25 70 -35 100 -10 30 -30 80 -45 110 -99 201 -150 299 -158 304 -6 3 -45
13 -89 22 -43 9 -95 27 -115 40 -82 53 -179 261 -198 426 -12 100 -28 216 -37
261 -3 15 2 42 12 62 16 36 14 88 -6 100 -5 4 -9 14 -9 23 0 10 -15 40 -34 68
-18 27 -35 59 -38 69 -3 17 -12 20 -56 20 -43 -1 -57 -6 -83 -30 -17 -17 -37
-42 -45 -57 -16 -30 -41 -37 -50 -14 -3 8 2 28 10 45 21 39 7 81 -26 81 -18 0
-30 -14 -54 -63 -19 -40 -37 -63 -50 -65 -10 -2 -26 -5 -34 -8 -8 -3 -17 -6
-20 -6 -3 -1 -19 -7 -37 -15 -50 -20 -56 -18 -50 23 4 20 2 45 -3 54 -5 9 -11
33 -13 51 -4 46 -12 57 -52 73 -18 8 -38 23 -44 34 -9 17 -5 27 27 61 21 23
41 41 44 41 3 0 8 -13 12 -30 7 -36 15 -37 72 -8 37 18 48 19 69 10 40 -18 55
-15 90 20 18 18 46 41 63 51 30 17 31 17 58 -8 15 -14 34 -25 43 -25 9 -1 36
-26 61 -55 24 -30 52 -55 61 -55 10 0 21 -12 27 -29 6 -18 24 -37 44 -47 18
-9 52 -34 75 -55 24 -22 50 -39 59 -39 43 0 235 -92 324 -155 25 -18 56 -36
70 -40 14 -4 45 -17 70 -30 253 -125 323 -166 395 -233 39 -35 81 -74 95 -86
14 -13 55 -72 93 -133 37 -61 106 -169 154 -239 48 -72 132 -219 188 -330 110
-217 153 -288 224 -367 104 -116 245 -316 277 -394 9 -21 36 -68 60 -104 24
-37 44 -78 44 -92 0 -42 -18 -77 -47 -90 -42 -18 -89 -69 -102 -110 -20 -58
-35 -64 -66 -22 -26 33 -55 47 -55 26 0 -5 -15 -26 -34 -45 -41 -44 -78 -48
-102 -11 -22 34 -58 32 -130 -6 -54 -28 -65 -31 -124 -25 -36 3 -99 16 -140
29 -84 27 -160 41 -160 30 1 -13 82 -69 145 -100 98 -49 189 -82 269 -99 72
-15 80 -14 156 5 68 17 89 18 140 9 l61 -10 49 46 c31 29 58 46 74 46 44 0 74
18 98 59 13 23 37 48 55 56 50 24 56 45 49 151 -5 69 -4 94 6 100 7 4 80 25
163 46 574 147 1180 423 1714 780 439 293 879 692 1222 1104 132 160 347 457
434 599 22 37 57 94 78 127 87 139 217 391 318 618 237 536 385 1091 454 1700
36 322 37 867 1 1195 -33 299 -43 360 -100 625 -179 825 -516 1559 -1031 2245
-368 489 -876 967 -1400 1316 -516 343 -1089 604 -1675 760 -506 136 -1003
200 -1525 198 -148 -1 -313 -5 -365 -10z m865 -99 c650 -62 1219 -207 1790
-455 647 -281 1284 -723 1775 -1231 165 -171 278 -299 367 -413 45 -58 92
-119 106 -136 158 -199 398 -588 544 -881 132 -267 195 -418 308 -749 73 -211
168 -604 214 -885 43 -268 55 -443 56 -845 0 -254 -5 -451 -13 -540 -26 -278
-85 -628 -141 -840 -10 -38 -29 -108 -41 -155 -30 -114 -118 -378 -173 -520
-186 -480 -440 -938 -743 -1343 -175 -232 -286 -360 -519 -593 -396 -397 -684
-622 -1175 -916 -298 -178 -750 -378 -1110 -491 -292 -91 -451 -132 -483 -123
-13 3 -60 55 -112 122 -49 64 -124 160 -165 213 -42 53 -109 141 -150 196 -40
55 -91 123 -112 152 -48 63 -55 103 -34 176 9 31 21 92 26 134 14 106 33 167
73 235 54 89 67 139 74 291 7 153 11 162 71 172 20 4 69 15 107 26 861 241
1541 700 2106 1419 148 189 346 525 455 770 238 542 345 1082 331 1675 -9 390
-54 669 -173 1085 -54 188 -209 547 -307 713 -26 43 -47 80 -47 82 0 7 -99
162 -169 265 -216 319 -542 657 -871 901 -946 704 -2147 946 -3295 663 -494
-121 -988 -356 -1405 -667 -94 -71 -114 -88 -315 -267 -149 -133 -374 -384
-498 -556 -115 -160 -161 -232 -261 -409 -66 -116 -175 -345 -219 -460 -41
-108 -112 -318 -121 -360 -4 -16 -17 -70 -31 -120 -91 -343 -131 -723 -115
-1100 5 -115 11 -228 14 -250 3 -22 10 -80 16 -130 25 -206 94 -503 166 -715
136 -399 312 -738 551 -1065 59 -80 78 -115 99 -183 l25 -84 -27 -69 c-17 -46
-24 -80 -21 -99 16 -76 171 -270 437 -545 85 -89 184 -192 220 -230 109 -118
170 -164 259 -195 45 -16 116 -51 158 -79 94 -59 225 -132 273 -150 19 -8 58
-27 87 -43 59 -33 73 -62 73 -153 0 -31 9 -69 24 -101 20 -43 34 -57 91 -90
113 -66 128 -72 200 -84 84 -14 139 -4 195 35 31 22 42 25 59 16 30 -17 66
-13 85 8 17 18 16 21 -17 58 -47 53 -56 125 -22 175 13 19 25 50 28 69 2 23 4
16 5 -23 2 -43 8 -63 25 -85 30 -36 102 -161 112 -193 12 -42 46 -93 96 -145
33 -34 56 -71 73 -115 13 -36 36 -89 52 -118 25 -49 26 -55 15 -95 -20 -68
-80 -177 -132 -244 -78 -98 -178 -177 -321 -257 -37 -20 -101 -68 -143 -106
-50 -47 -83 -70 -99 -70 -24 0 -213 48 -361 91 -129 38 -389 131 -545 196
-197 81 -543 252 -684 337 -60 36 -110 66 -112 66 -9 0 -351 235 -429 295
-429 327 -767 659 -1081 1061 -185 237 -390 556 -542 845 -68 128 -194 396
-212 449 -5 14 -27 72 -50 130 -282 718 -416 1566 -370 2330 39 638 170 1233
393 1785 352 871 869 1589 1592 2212 547 471 1271 870 1965 1084 191 59 382
109 525 138 266 54 570 95 824 111 169 11 678 5 826 -10z m-135 -1814 c793
-74 1514 -376 2130 -892 99 -83 317 -298 417 -411 274 -311 514 -709 677
-1123 212 -537 300 -1152 245 -1720 -49 -509 -174 -942 -405 -1402 -81 -162
-145 -267 -279 -458 -62 -88 -70 -98 -202 -260 -299 -367 -745 -722 -1193
-949 -249 -127 -516 -228 -766 -291 -71 -18 -134 -38 -140 -44 -6 -6 -20 -37
-32 -69 -24 -64 -30 -183 -12 -218 8 -14 7 -25 -5 -43 -9 -14 -26 -43 -38 -65
-65 -120 -77 -138 -91 -150 -9 -8 -28 -40 -42 -72 -46 -102 -77 -82 -203 131
-41 69 -91 145 -111 170 -20 25 -67 83 -105 130 -78 97 -117 130 -155 130 -39
0 -76 47 -90 115 -6 31 -9 69 -5 83 4 15 11 69 15 121 6 72 5 104 -6 143 -41
137 -199 213 -519 249 -194 22 -184 22 -280 -11 -49 -17 -107 -34 -127 -37
-37 -5 -38 -4 -58 43 -24 57 -131 170 -205 218 -101 65 -249 113 -470 151 -93
16 -159 33 -175 44 -44 31 -79 139 -100 306 -11 83 -27 191 -36 241 -11 61
-14 128 -12 205 4 106 7 120 40 192 33 68 40 77 64 77 28 0 64 -25 64 -44 0
-40 23 -85 48 -94 78 -30 422 -52 510 -33 29 6 68 21 86 34 53 36 109 88 102
95 -4 3 -37 -4 -74 -16 -81 -26 -125 -28 -146 -6 -35 35 -18 75 76 185 59 68
63 104 17 138 -28 21 -30 25 -23 67 4 27 2 44 -4 44 -5 0 -38 -13 -73 -30 -81
-37 -144 -48 -152 -26 -4 11 10 26 51 53 68 46 110 109 116 175 7 78 90 179
179 218 57 25 82 20 167 -35 30 -19 66 -35 81 -35 15 0 78 18 139 40 77 28
128 40 165 40 49 0 58 -4 106 -45 51 -44 69 -49 69 -18 0 19 -111 129 -139
138 -32 10 -25 43 19 91 55 60 55 95 -3 160 -125 141 -139 179 -86 238 16 19
45 66 64 105 24 49 43 75 64 86 42 21 44 20 38 -25 -6 -44 -5 -45 55 -29 38
10 49 9 93 -11 45 -21 60 -22 174 -18 108 4 127 8 136 23 5 11 22 30 36 44
l26 26 -9 120 c-5 66 -13 124 -18 129 -6 6 -10 22 -10 36 0 14 -20 57 -45 95
-24 39 -53 86 -64 105 -39 72 -123 146 -215 190 -81 39 -89 45 -107 88 -11 26
-25 69 -31 97 -5 27 -20 61 -33 75 -57 63 -60 117 -10 195 19 30 48 61 64 69
16 9 37 29 46 44 26 43 74 70 129 74 l48 3 34 -99 c67 -200 161 -334 269 -385
52 -26 86 -28 168 -11 65 13 71 17 134 84 44 47 78 94 102 145 33 71 35 82 34
166 -2 124 -17 165 -71 191 -38 18 -116 88 -209 188 -18 19 -44 58 -59 87
l-28 52 38 32 c29 24 59 37 122 50 l83 19 -6 50 c-9 83 -34 116 -142 188 -24
16 -43 38 -46 53 -3 14 -7 36 -10 50 -7 33 -70 72 -137 86 -29 6 -56 14 -61
18 -4 4 6 20 23 36 39 37 38 59 -4 106 -32 35 -34 40 -24 71 7 23 25 45 57 66
25 18 69 54 98 82 43 41 53 57 59 96 6 41 4 49 -19 71 -28 29 -170 83 -235 90
-68 8 -201 -50 -332 -143 -30 -21 -42 -24 -81 -19 -44 6 -48 5 -69 -25 l-22
-31 -27 24 c-14 14 -52 37 -85 52 -69 33 -129 30 -186 -10 -33 -23 -124 -53
-289 -97 -96 -25 -119 -37 -210 -112 -42 -34 -93 -72 -115 -85 -28 -18 -46
-41 -67 -85 -16 -34 -29 -72 -29 -87 0 -14 -19 -54 -42 -90 -60 -92 -124 -333
-137 -516 -6 -94 -9 -105 -37 -140 -22 -27 -44 -41 -75 -49 -77 -20 -139 -52
-148 -76 -14 -38 -42 -55 -118 -73 -71 -17 -72 -17 -106 4 -49 30 -63 27 -100
-26 -77 -111 -186 -254 -253 -333 -39 -47 -85 -106 -100 -132 -16 -26 -57 -87
-91 -136 -65 -94 -103 -163 -122 -223 -9 -30 -9 -57 5 -140 22 -139 14 -267
-25 -427 -29 -117 -31 -131 -27 -285 2 -89 7 -232 11 -317 l8 -155 -32 -80
c-18 -44 -46 -103 -62 -131 -16 -28 -29 -56 -29 -62 0 -12 -93 -230 -139 -327
-16 -33 -37 -86 -47 -117 -20 -65 -27 -36 66 -258 49 -116 53 -131 54 -210 2
-134 -12 -123 -181 149 -207 335 -374 743 -463 1136 -69 306 -93 520 -93 855
-1 595 110 1091 370 1643 308 656 836 1239 1467 1621 504 306 1055 488 1631
541 193 17 519 18 705 1z m-967 -1351 c34 -14 16 -22 -42 -20 -63 2 -85 10
-75 27 7 10 84 6 117 -7z m-97 -740 c36 -56 -8 -168 -100 -253 -43 -40 -95
-72 -116 -72 -15 0 -12 64 4 102 8 18 21 53 30 78 17 47 127 170 152 170 7 0
21 -11 30 -25z m739 -430 c24 -46 54 -53 100 -25 44 27 76 23 93 -13 31 -65
-35 -118 -128 -102 -86 15 -161 94 -141 148 18 47 48 43 76 -8z m-1002 -4787
c32 -43 43 -141 22 -192 -8 -19 -19 -37 -24 -40 -4 -3 -9 -59 -10 -123 0 -99
-3 -120 -18 -130 -32 -24 -61 -16 -72 20 -11 31 -13 32 -73 35 -35 2 -84 13
-110 24 -51 22 -53 26 -48 104 1 18 -4 35 -10 39 -8 5 -8 11 1 21 15 18 39 18
39 0 0 -19 39 -31 53 -17 8 8 6 25 -5 61 -16 50 -16 51 13 109 22 44 38 62 62
72 17 7 43 21 56 31 13 10 40 18 62 18 31 0 42 -6 62 -32z m-403 -9 c0 -5 -6
-9 -13 -9 -8 0 -14 6 -14 14 0 8 6 12 14 9 7 -3 13 -9 13 -14z"/>
<path d="M10847 15884 c-13 -13 -7 -41 12 -58 11 -10 30 -39 42 -64 39 -84
250 -594 294 -712 59 -159 70 -163 141 -47 109 177 445 685 488 736 20 24 35
49 33 55 -5 14 -64 25 -139 25 -65 1 -74 -12 -38 -51 11 -12 20 -30 20 -39 0
-24 -49 -116 -155 -292 -50 -82 -112 -184 -138 -228 -34 -56 -54 -79 -67 -79
-26 0 -55 62 -246 520 -43 103 -52 151 -35 179 14 22 2 40 -32 45 -71 11 -173
16 -180 10z"/>
<path d="M10082 15743 c-11 -38 -24 -86 -28 -108 -8 -47 -51 -166 -65 -179 -5
-6 -9 -18 -9 -28 0 -11 -9 -36 -20 -58 -11 -22 -20 -46 -20 -55 0 -8 -18 -53
-40 -99 -22 -46 -40 -87 -40 -91 0 -16 -92 -217 -115 -252 -22 -32 -24 -39
-11 -51 12 -12 22 -13 60 -3 25 6 58 11 74 11 15 0 36 6 46 13 16 12 15 15
-14 52 -30 37 -32 44 -26 94 4 30 13 68 21 85 7 17 25 70 40 117 14 47 33 93
43 102 9 9 49 21 87 27 39 6 105 18 147 27 97 20 102 17 189 -107 114 -163
128 -190 129 -242 0 -26 5 -50 10 -53 10 -6 206 21 222 31 17 11 7 33 -26 61
-69 57 -313 374 -556 722 -51 73 -72 70 -98 -16z m47 -135 c48 -53 141 -183
141 -199 0 -9 -6 -21 -13 -27 -15 -13 -221 -36 -244 -28 -12 5 -15 16 -10 54
3 26 13 61 21 77 9 17 16 38 16 48 0 21 46 97 59 97 5 0 18 -10 30 -22z"/>
<path d="M12125 15730 c-4 -6 -1 -26 5 -44 10 -31 4 -54 -55 -237 -36 -112
-72 -222 -80 -244 -8 -22 -25 -78 -39 -125 -20 -68 -35 -96 -72 -138 -41 -47
-45 -55 -32 -68 8 -8 88 -38 179 -66 90 -28 214 -68 274 -88 214 -74 306 -100
324 -91 22 12 91 113 91 134 0 21 -4 21 -68 -3 -142 -54 -491 14 -574 112 -27
31 -21 80 30 228 35 101 52 136 65 138 21 4 282 -80 338 -109 21 -10 47 -34
59 -54 37 -60 49 -51 86 67 22 71 13 88 -34 64 -47 -24 -107 -18 -202 22 -14
6 -64 22 -112 37 -48 14 -96 34 -108 43 l-21 17 47 145 c26 80 52 151 57 158
14 18 43 15 131 -17 45 -16 111 -37 148 -46 78 -20 186 -96 229 -160 15 -22
35 -40 46 -40 15 0 18 10 21 66 2 45 -1 69 -10 76 -7 6 -94 37 -193 68 -99 31
-253 81 -341 111 -173 58 -180 59 -189 44z"/>
<path d="M9078 15554 c-249 -45 -438 -202 -438 -365 0 -121 94 -218 213 -221
28 0 140 14 247 32 212 35 247 34 305 -12 55 -43 72 -144 35 -205 -110 -181
-429 -253 -582 -132 -41 33 -58 20 -58 -46 0 -96 26 -106 210 -85 182 21 408
128 493 232 58 72 72 106 71 178 -1 76 -36 156 -81 188 -72 50 -143 53 -358
16 -241 -41 -322 -32 -366 40 -45 74 -32 145 41 215 104 100 342 135 445 65
55 -37 65 -33 65 29 0 73 -17 87 -101 86 -35 0 -99 -7 -141 -15z"/>
<path d="M14159 14843 c-133 -63 -211 -247 -146 -344 85 -127 293 -20 337 175
13 60 0 116 -38 155 -39 41 -86 46 -153 14z"/>
<path d="M13714 14751 c-70 -43 -114 -133 -114 -235 0 -72 22 -116 71 -141 73
-38 179 32 217 144 17 47 15 146 -3 181 -35 67 -108 89 -171 51z"/>
<path d="M7302 14583 c-118 -58 -67 -292 81 -377 63 -36 92 -39 142 -17 52 23
75 61 75 125 0 137 -129 287 -246 286 -11 0 -34 -8 -52 -17z"/>
<path d="M14420 14521 c-59 -19 -108 -52 -147 -101 -87 -106 -61 -208 59 -241
128 -34 318 102 318 229 0 34 -6 49 -34 79 -32 35 -37 37 -102 40 -38 1 -80
-1 -94 -6z"/>
<path d="M7760 14492 c-120 -64 -81 -310 62 -383 50 -25 86 -19 128 24 59 60
63 156 12 257 -47 92 -135 137 -202 102z"/>
<path d="M13664 14310 c-114 -17 -215 -61 -264 -116 -28 -33 -32 -42 -27 -81
6 -57 60 -122 153 -185 111 -75 117 -81 162 -172 72 -144 166 -228 235 -211
64 16 134 126 173 270 14 51 19 103 19 190 0 105 -3 126 -23 167 -58 118 -217
169 -428 138z"/>
<path d="M7020 14255 c-50 -23 -69 -43 -76 -82 -21 -111 99 -240 242 -260 141
-19 221 76 163 193 -59 117 -229 194 -329 149z"/>
<path d="M14359 14086 c-98 -35 -159 -105 -159 -183 0 -148 238 -161 350 -20
32 40 40 58 40 92 0 98 -114 153 -231 111z"/>
<path d="M7670 14041 c-88 -29 -146 -78 -179 -151 -43 -96 -16 -341 52 -477
92 -180 191 -182 309 -6 25 37 56 92 68 121 20 46 32 59 104 106 260 170 262
300 6 386 -51 17 -94 23 -200 26 -74 2 -146 0 -160 -5z"/>
<path d="M7115 13830 c-109 -17 -147 -108 -84 -203 42 -64 105 -99 191 -105
82 -6 120 8 148 53 48 78 5 175 -100 227 -64 31 -99 37 -155 28z"/>
<path d="M15241 13531 c-22 -27 -77 -66 -179 -124 -81 -47 -161 -94 -178 -104
-240 -141 -300 -167 -355 -156 -61 12 -54 -27 25 -154 42 -67 69 -81 80 -39
11 46 58 87 184 161 69 41 130 75 136 75 21 0 32 -16 96 -125 105 -180 112
-199 108 -274 -2 -54 0 -66 13 -69 16 -3 154 71 165 89 8 14 -15 39 -36 39 -9
0 -35 13 -56 29 -51 36 -219 312 -210 345 4 13 34 37 83 65 43 24 104 60 135
79 72 43 88 38 129 -41 17 -34 50 -94 74 -133 65 -109 86 -179 86 -290 0 -73
3 -94 14 -94 22 0 95 90 95 118 0 13 -38 88 -84 166 -45 77 -94 161 -108 186
-94 168 -168 290 -178 290 -4 0 -22 -18 -39 -39z"/>
<path d="M6111 12766 c-13 -15 -66 -165 -76 -216 -4 -19 -13 -45 -21 -57 -7
-12 -31 -72 -53 -135 -22 -62 -54 -151 -72 -198 -47 -128 -60 -172 -54 -191 7
-23 89 -89 109 -89 21 0 20 18 -5 92 -19 56 -19 69 -9 152 20 152 48 176 160
137 364 -127 599 -215 626 -236 18 -14 36 -34 39 -46 12 -38 47 -20 68 36 70
189 70 207 6 175 -51 -27 -105 -21 -223 22 -142 52 -297 108 -416 149 -68 23
-122 48 -132 60 -34 40 -23 84 38 165 31 42 73 87 92 102 57 44 83 72 77 82
-10 16 -140 12 -154 -4z"/>
<path d="M15365 12512 c-115 -35 -178 -78 -241 -163 -113 -155 -132 -355 -51
-552 78 -193 263 -317 472 -317 231 0 386 129 450 375 28 110 12 270 -39 380
-50 109 -160 211 -286 265 -75 32 -218 38 -305 12z m307 -127 c68 -8 156 -60
206 -123 50 -62 92 -163 92 -219 0 -138 -69 -256 -198 -339 -106 -69 -330
-112 -439 -85 -193 48 -316 300 -241 496 27 70 101 154 171 193 91 52 255 94
327 86 14 -2 51 -6 82 -9z"/>
<path d="M5922 11699 c-45 -13 -117 -91 -152 -164 -38 -82 -59 -173 -70 -307
-5 -62 -17 -166 -26 -230 -13 -94 -14 -121 -4 -133 11 -13 15 -13 41 0 38 20
83 19 304 -10 105 -14 233 -30 285 -36 132 -14 167 -25 207 -64 57 -55 64 -46
81 110 13 113 6 124 -52 90 -41 -24 -46 -24 -122 -14 -43 6 -110 14 -148 20
-38 5 -75 14 -82 20 -18 15 -18 54 2 202 36 275 -21 466 -153 511 -52 18 -64
18 -111 5z m145 -189 c66 -49 87 -114 86 -271 0 -69 -6 -149 -13 -178 -19 -81
-25 -83 -220 -57 -91 11 -172 26 -182 31 -15 9 -15 19 -2 117 25 193 61 295
123 351 38 34 45 37 104 37 55 0 69 -4 104 -30z"/>
<path d="M15295 11317 c-55 -85 -84 -280 -65 -451 15 -148 49 -238 119 -314
87 -94 255 -100 338 -10 34 36 60 104 78 203 55 308 69 351 124 398 44 37 99
43 150 17 85 -43 130 -150 117 -280 -14 -132 -50 -214 -116 -258 -19 -13 -36
-27 -38 -32 -6 -15 61 -50 95 -50 40 0 56 22 77 105 31 123 39 216 27 316 -19
158 -82 264 -187 315 -74 36 -154 32 -216 -13 -64 -46 -94 -113 -118 -268 -43
-266 -58 -311 -122 -358 -36 -27 -124 -27 -170 -1 -81 47 -136 195 -123 328
13 129 64 235 135 282 52 34 52 57 0 78 -56 22 -87 20 -105 -7z"/>
<path d="M6005 10576 c-119 -39 -202 -115 -269 -245 -90 -176 -90 -395 1 -544
75 -123 199 -217 324 -243 172 -37 350 18 454 138 54 64 114 191 124 268 38
279 -81 502 -324 611 -62 28 -245 37 -310 15z m357 -155 c111 -30 181 -98 224
-218 60 -164 -1 -351 -143 -441 -85 -54 -181 -77 -323 -77 -119 0 -128 1 -190
31 -90 43 -133 83 -174 165 -67 133 -69 210 -11 334 27 55 111 142 167 171
103 53 324 71 450 35z"/>
<path d="M16034 10276 c-3 -8 6 -32 21 -54 28 -43 55 -128 55 -177 0 -38 15
-64 29 -50 6 6 18 51 26 100 20 111 13 130 -58 168 -60 31 -66 32 -73 13z"/>
<path d="M15224 10048 c-9 -15 -34 -163 -34 -205 0 -39 10 -41 65 -13 49 25
87 25 234 1 64 -11 208 -34 320 -52 235 -38 251 -46 251 -113 0 -59 -58 -171
-125 -244 -67 -72 -63 -86 22 -71 34 6 69 16 79 23 18 14 29 64 44 196 5 47
18 128 29 180 21 97 28 210 13 210 -5 0 -17 -17 -28 -37 -26 -51 -49 -52 -277
-14 -100 16 -243 39 -317 51 -166 26 -189 33 -225 70 -31 33 -40 36 -51 18z"/>
<path d="M15106 9397 c-9 -12 -22 -43 -31 -67 -9 -25 -29 -74 -44 -110 -16
-36 -46 -110 -67 -165 -21 -55 -41 -105 -45 -110 -4 -6 -23 -53 -42 -105 -20
-52 -43 -113 -52 -134 -12 -29 -14 -45 -7 -61 11 -23 80 -84 120 -104 19 -10
22 -9 22 9 0 12 -7 35 -16 53 -35 68 3 334 67 461 28 57 83 123 108 131 29 9
318 -101 335 -128 6 -9 -10 -62 -49 -161 -65 -165 -86 -202 -132 -231 -43 -27
-43 -59 0 -75 17 -6 47 -18 65 -26 55 -24 66 -20 57 24 -4 20 -9 48 -12 62 -5
28 108 331 136 363 9 11 24 17 36 14 40 -10 270 -109 284 -123 15 -14 15 -16
-44 -149 -8 -16 -17 -41 -20 -55 -13 -47 -77 -165 -113 -209 -20 -24 -58 -58
-84 -74 -65 -40 -61 -59 15 -71 47 -8 60 -7 75 7 20 18 24 27 137 317 42 107
87 218 100 245 32 71 47 123 40 136 -5 7 -21 8 -42 4 -27 -5 -62 5 -176 50
-158 63 -276 111 -322 130 -16 7 -61 25 -100 41 -84 33 -119 57 -146 101 -24
39 -33 41 -53 10z"/>
<path d="M6286 9349 c-131 -45 -223 -141 -282 -294 -41 -106 -38 -193 11 -310
20 -49 52 -130 70 -180 80 -214 107 -281 121 -295 13 -13 19 -10 51 28 35 42
61 57 160 92 29 10 67 25 85 34 86 39 432 166 453 166 13 0 37 -12 54 -26 36
-30 39 -58 16 -125 -17 -46 -236 -486 -324 -649 -87 -161 -94 -177 -87 -195 5
-14 13 -16 39 -10 127 29 224 43 407 60 301 28 424 36 520 33 83 -3 95 -1 98
14 5 26 -94 158 -118 158 -4 0 -14 -18 -23 -40 -21 -54 -65 -73 -240 -99 -121
-19 -141 -19 -159 -7 -19 13 -39 40 -123 163 -20 28 -42 57 -50 63 -24 20 -18
72 13 121 16 24 48 82 72 128 49 94 97 151 129 151 37 0 24 43 -43 141 -45 67
-75 127 -105 209 -23 63 -47 124 -53 135 -12 20 -90 220 -111 284 -15 45 -149
182 -207 211 -127 64 -260 78 -374 39z m343 -130 c110 -23 178 -93 245 -252
52 -124 60 -156 52 -200 -8 -44 -25 -56 -131 -96 -44 -16 -168 -64 -275 -106
-293 -115 -298 -117 -322 -113 -27 4 -34 17 -103 196 -66 171 -72 240 -30 330
79 169 352 287 564 241z m375 -1404 c59 -84 82 -144 59 -146 -5 0 -41 -2 -81
-5 -40 -2 -93 -9 -118 -14 -48 -11 -74 -2 -74 25 0 6 25 62 55 123 42 84 60
112 74 112 13 0 41 -31 85 -95z"/>
<path d="M14708 8473 c-18 -26 -40 -57 -48 -69 -8 -12 -23 -33 -34 -48 -25
-35 -8 -57 38 -49 44 7 95 -18 226 -111 83 -59 105 -79 104 -98 0 -28 -130
-213 -179 -257 -42 -37 -105 -55 -163 -47 -24 3 -103 22 -175 41 -72 20 -145
35 -161 33 -23 -2 -40 -16 -73 -58 -23 -30 -42 -65 -43 -77 0 -22 4 -23 68
-23 37 0 113 -9 170 -20 131 -25 163 -25 239 2 35 12 66 19 69 15 4 -4 -1 -33
-10 -65 -34 -121 -11 -200 71 -253 63 -40 126 -40 208 0 79 38 108 67 194 192
39 57 94 136 122 174 148 208 157 221 143 235 -6 6 -28 13 -50 17 -40 6 -124
57 -314 193 -58 41 -131 93 -164 115 -85 57 -156 124 -156 147 0 28 -18 58
-35 58 -8 0 -29 -21 -47 -47z m455 -469 c164 -113 177 -124 177 -152 0 -14 -7
-32 -15 -41 -26 -27 -111 -145 -128 -177 -21 -41 -97 -110 -143 -129 -77 -32
-145 -12 -200 61 -25 32 -28 45 -28 108 l0 71 107 158 c77 112 114 157 128
157 10 0 56 -25 102 -56z"/>
<path d="M12583 13290 c3 -14 -3 -30 -19 -47 -30 -33 -30 -41 0 -49 42 -10 65
10 64 59 0 41 -10 57 -37 57 -9 0 -11 -7 -8 -20z"/>
<path d="M10376 13275 c-3 -8 -2 -15 3 -15 5 0 14 7 21 15 10 12 10 15 -3 15
-8 0 -17 -7 -21 -15z"/>
<path d="M12216 13185 c-6 -18 16 -30 39 -21 20 7 8 36 -15 36 -10 0 -21 -7
-24 -15z"/>
<path d="M12500 13175 c0 -8 -4 -15 -10 -15 -5 0 -7 -7 -4 -15 10 -24 49 -18
62 9 13 28 7 36 -25 36 -14 0 -23 -6 -23 -15z"/>
<path d="M13046 13155 c-11 -8 -36 -18 -55 -21 -20 -4 -44 -11 -53 -16 -22
-11 -24 -44 -4 -51 8 -3 18 -22 22 -42 5 -26 15 -42 38 -56 33 -20 51 -20 51
0 0 16 43 40 73 41 24 0 82 49 82 69 0 6 -12 16 -26 24 -14 7 -31 24 -37 38
-15 29 -62 36 -91 14z m87 -42 c10 -10 -24 -43 -44 -43 -24 0 -33 17 -17 34
13 16 50 21 61 9z"/>
<path d="M12397 13131 c-3 -14 1 -18 17 -17 27 1 35 36 8 36 -11 0 -22 -8 -25
-19z"/>
<path d="M12513 13098 c-36 -12 -40 -23 -18 -54 8 -12 12 -23 10 -26 -3 -2 22
-36 56 -74 33 -38 67 -82 76 -99 9 -16 24 -36 35 -43 17 -13 17 -32 -1 -32 -4
0 -30 21 -57 46 -27 25 -78 59 -114 76 -36 16 -76 36 -90 43 -14 7 -54 16 -90
20 -56 6 -69 4 -89 -13 l-24 -19 21 -35 c19 -30 20 -37 8 -60 -14 -27 -8 -90
11 -109 5 -5 38 -17 74 -27 111 -31 123 -40 130 -97 9 -66 27 -133 39 -140 18
-11 10 -38 -20 -67 -37 -35 -69 -48 -120 -48 -45 0 -137 -38 -162 -66 -30 -35
-35 -83 -21 -204 14 -120 22 -156 55 -230 57 -127 64 -132 201 -134 102 -1
106 0 134 26 15 15 42 37 60 50 100 73 145 112 159 141 29 56 45 57 68 2 8
-19 41 -62 73 -97 81 -88 89 -115 74 -270 -7 -68 -13 -132 -15 -143 -2 -11 5
-48 14 -83 14 -49 26 -70 56 -97 22 -19 46 -37 54 -40 8 -3 30 -26 49 -50 32
-43 36 -45 82 -45 68 0 149 51 149 93 0 16 6 41 14 55 8 15 24 51 35 80 26 64
19 81 -44 112 -42 20 -45 25 -45 60 0 31 6 43 30 62 17 13 44 35 60 50 25 22
36 26 66 21 l37 -6 -8 39 c-15 77 -22 169 -13 186 15 30 9 89 -13 119 -27 38
-22 49 32 65 64 20 89 18 89 -5 0 -11 15 -30 33 -42 17 -12 34 -24 36 -26 3
-2 -5 -10 -17 -19 -29 -20 -28 -42 3 -56 18 -8 25 -19 25 -40 0 -33 13 -63 43
-95 l20 -23 -22 -24 c-15 -16 -21 -31 -17 -44 9 -28 47 -60 76 -64 38 -5 39
-47 0 -87 -24 -27 -35 -32 -56 -27 -30 8 -54 -8 -54 -36 0 -11 -9 -31 -19 -45
-26 -31 -18 -48 29 -67 62 -25 68 -102 9 -126 -41 -18 -45 -28 -18 -57 14 -15
19 -27 13 -30 -6 -2 -20 -10 -30 -18 -17 -12 -17 -17 -6 -35 11 -19 11 -25 -2
-39 -15 -16 -15 -19 2 -34 10 -10 25 -17 33 -17 8 0 26 -8 39 -17 l25 -18 -40
-6 c-132 -21 -195 -45 -195 -75 0 -7 11 -21 25 -30 30 -20 32 -49 6 -64 -11
-5 -28 -24 -38 -41 -12 -22 -38 -40 -80 -60 -53 -24 -63 -32 -63 -54 0 -19 5
-25 21 -25 11 0 29 -5 40 -11 16 -8 18 -13 8 -25 -6 -8 -22 -14 -35 -14 -29 0
-57 -28 -48 -49 3 -9 6 -20 6 -26 -9 -105 -9 -169 0 -209 10 -48 10 -50 -16
-71 -14 -11 -26 -25 -26 -29 0 -8 25 -41 104 -131 42 -49 42 -50 -12 -102 -21
-21 -22 -24 -7 -59 15 -36 14 -37 -15 -64 -23 -21 -30 -37 -30 -65 0 -20 4
-34 8 -31 4 2 14 1 21 -4 21 -12 5 -40 -22 -40 -30 0 -67 -35 -67 -64 0 -13 9
-31 20 -41 29 -26 26 -63 -8 -82 -40 -23 -71 -74 -65 -106 3 -15 0 -34 -7 -42
-6 -8 -9 -18 -6 -24 9 -13 -4 -41 -19 -41 -43 0 -33 -56 16 -93 l27 -19 68 37
c38 21 76 44 84 51 8 6 33 22 54 34 81 45 269 217 317 291 69 104 141 187 259
299 72 67 159 156 193 198 34 41 89 94 123 118 33 24 73 61 88 83 51 73 60
174 24 274 -35 96 -32 243 6 361 25 78 28 97 22 160 -4 39 -11 109 -16 156 -5
47 -18 110 -29 140 -11 30 -20 69 -21 85 0 55 -164 513 -234 655 -87 177 -126
231 -235 325 -50 44 -103 96 -118 118 -51 74 -190 193 -276 238 -45 23 -107
60 -138 81 -76 52 -114 51 -146 -7 -13 -22 -23 -54 -23 -72 0 -46 50 -120 119
-176 64 -51 81 -90 81 -180 0 -35 6 -49 31 -73 34 -32 59 -74 59 -99 0 -11
-11 -15 -44 -15 -46 0 -62 -15 -45 -41 14 -22 10 -59 -6 -65 -17 -7 -128 62
-167 103 -14 16 -34 44 -43 63 -31 67 -98 171 -145 227 -12 15 -13 43 -1 43
23 0 21 54 -5 108 -15 31 -28 71 -29 89 -1 46 -36 78 -139 129 -91 45 -123 52
-158 33 -18 -10 -28 -3 -87 61 -36 40 -70 81 -75 91 -6 13 -64 45 -70 38 -1
-1 -16 -6 -33 -11z m11 -464 c22 -8 20 -21 -4 -27 -20 -5 -45 15 -33 26 8 9
17 9 37 1z m93 -377 c4 -7 31 -28 58 -47 71 -47 105 -81 105 -103 0 -17 -5
-19 -40 -14 -34 4 -51 16 -105 73 -66 69 -82 104 -45 104 10 0 23 -6 27 -13z
m-77 -253 c0 -17 -22 -14 -28 4 -2 7 3 12 12 12 9 0 16 -7 16 -16z m-149 -39
c6 -39 30 -65 59 -65 29 0 59 -28 53 -51 -14 -51 -104 -49 -148 3 -23 28 -26
39 -23 80 8 82 48 104 59 33z"/>
<path d="M13052 12918 c18 -27 44 -34 64 -17 22 18 -1 39 -43 39 -34 0 -35 -1
-21 -22z"/>
<path d="M8766 12184 c-9 -8 -19 -27 -23 -42 -3 -14 -20 -37 -36 -51 -50 -42
-73 -126 -44 -163 11 -15 16 -15 51 -3 39 14 116 80 116 100 0 5 -17 19 -37
30 -48 26 -53 44 -14 51 41 9 65 37 57 69 -7 29 -45 35 -70 9z"/>
<path d="M12698 11121 c-30 -35 -53 -111 -44 -146 5 -20 12 -25 39 -25 54 1
129 25 147 48 14 17 16 30 9 64 -4 24 -8 47 -9 51 0 12 -65 37 -94 37 -14 0
-34 -12 -48 -29z"/>
<path d="M13170 10937 c-9 -7 -15 -18 -14 -24 1 -7 2 -20 3 -28 0 -8 14 -29
29 -46 22 -25 33 -30 51 -24 21 6 23 12 18 51 -7 69 -48 102 -87 71z"/>
<path d="M11008 10753 c12 -2 30 -2 40 0 9 3 -1 5 -23 4 -22 0 -30 -2 -17 -4z"/>
<path d="M11160 10651 c0 -6 5 -13 10 -16 6 -3 10 1 10 9 0 9 -4 16 -10 16 -5
0 -10 -4 -10 -9z"/>
<path d="M12017 10584 c12 -19 18 -22 24 -12 7 10 9 9 9 -4 0 -22 32 -39 51
-28 20 13 0 42 -37 52 -66 20 -65 20 -47 -8z"/>
<path d="M11723 10579 c-23 -11 -62 -40 -85 -62 -24 -23 -52 -47 -63 -52 -29
-15 -42 -138 -22 -203 39 -123 39 -132 14 -202 -26 -74 -54 -130 -65 -131 -4
0 -15 -2 -24 -4 -10 -2 -20 1 -24 6 -9 15 -36 10 -32 -6 5 -24 132 -66 233
-77 177 -19 514 11 558 50 21 19 22 45 1 78 -22 32 -10 77 52 191 39 74 44 90
44 148 0 76 -18 127 -62 173 -37 38 -45 39 -69 11 -15 -17 -25 -20 -57 -14
-25 4 -42 2 -47 -4 -12 -20 -35 -11 -79 29 -96 88 -187 112 -273 69z"/>
<path d="M12963 9228 c-26 -12 -25 -10 -27 -133 -1 -109 -19 -145 -105 -207
-73 -53 -137 -115 -220 -213 -77 -90 -187 -247 -221 -315 -28 -54 -70 -177
-70 -202 0 -25 26 -23 45 5 9 12 57 82 107 155 99 142 334 396 415 446 52 32
150 171 205 289 10 22 19 27 49 27 46 0 76 29 60 58 -13 24 -32 32 -77 32 -25
0 -38 6 -50 25 -14 22 -28 30 -74 40 -8 2 -25 -1 -37 -7z"/>
<path d="M7642 8950 c0 -14 2 -19 5 -12 2 6 2 18 0 25 -3 6 -5 1 -5 -13z"/>
<path d="M14047 8700 c-3 -11 -1 -20 4 -20 5 0 9 2 9 4 0 2 3 11 6 20 3 9 2
16 -4 16 -5 0 -12 -9 -15 -20z"/>
<path d="M13999 8619 c-6 -13 -22 -34 -35 -48 -21 -22 -33 -61 -19 -61 7 0 76
122 71 127 -2 3 -10 -6 -17 -18z"/>
<path d="M13869 8443 c-8 -10 -27 -37 -42 -60 -15 -24 -31 -43 -36 -43 -5 0
-18 -15 -29 -32 -23 -37 -54 -73 -159 -185 -73 -77 -83 -93 -60 -93 11 0 201
210 268 297 16 21 43 56 59 77 17 21 30 43 30 48 0 14 -16 9 -31 -9z"/>
<path d="M12127 7983 c-119 -131 -247 -291 -247 -309 0 -22 -50 -84 -68 -84
-5 0 -15 -7 -23 -16 -10 -13 -10 -20 4 -44 22 -37 21 -57 -3 -65 -16 -5 -20
-15 -20 -51 0 -25 -5 -54 -11 -65 -8 -15 -6 -33 7 -71 11 -35 14 -65 10 -99
-7 -51 7 -123 25 -135 13 -8 18 -6 279 76 107 34 204 67 215 74 11 7 56 27
100 45 99 41 259 119 300 147 17 11 59 35 93 52 66 34 138 80 212 135 25 19
56 40 70 47 14 7 41 27 61 44 19 17 70 58 113 91 43 33 82 68 87 77 5 10 16
18 24 18 8 0 24 13 36 30 13 16 39 41 60 56 35 24 55 51 45 61 -7 7 -140 -107
-150 -128 -5 -10 -16 -21 -25 -24 -9 -3 -34 -21 -54 -40 -20 -19 -41 -35 -46
-35 -5 0 -26 -16 -47 -35 -21 -20 -48 -41 -60 -48 -12 -6 -50 -32 -82 -57 -33
-25 -97 -67 -142 -95 -45 -27 -98 -61 -118 -74 -37 -24 -237 -125 -344 -175
-32 -14 -82 -37 -111 -51 -30 -14 -59 -25 -65 -25 -6 0 -65 -20 -132 -45 -124
-45 -227 -75 -261 -75 -31 0 -23 38 32 154 29 62 53 128 56 157 6 55 41 119
116 214 78 100 82 106 135 212 l51 101 -22 44 c-29 58 -55 61 -100 11z"/>
<path d="M9682 6785 c-10 -22 -9 -25 13 -31 31 -8 45 2 45 32 0 34 -42 34 -58
-1z"/>
<path d="M9354 7395 c-7 -18 44 -68 58 -58 10 5 10 35 0 49 -14 21 -52 27 -58
9z"/>
<path d="M16029 6433 c-161 -216 -420 -489 -639 -675 -78 -66 -363 -279 -440
-329 -75 -48 -199 -123 -293 -177 -102 -59 -108 -68 -97 -157 15 -112 12 -159
-9 -187 -49 -62 -644 -372 -811 -423 -14 -4 -45 -18 -70 -30 -25 -12 -146 -56
-270 -98 -288 -96 -327 -108 -370 -117 -19 -5 -116 -28 -215 -53 -197 -50
-327 -77 -480 -102 -55 -9 -122 -21 -150 -27 -27 -5 -81 -14 -120 -18 -38 -5
-106 -13 -150 -19 -225 -28 -385 -39 -855 -57 -161 -6 -813 20 -905 36 -27 5
-79 9 -115 10 -36 0 -94 7 -130 15 -36 8 -86 14 -111 15 -25 0 -68 6 -95 14
-27 8 -78 17 -114 21 -103 10 -300 50 -570 115 -197 48 -518 142 -575 169 -11
6 -63 24 -115 41 -52 17 -120 42 -150 55 -30 13 -125 54 -210 90 -85 37 -166
74 -180 83 -14 9 -72 39 -130 68 -139 68 -317 174 -359 213 l-33 31 7 118 c8
136 10 132 -107 196 -484 262 -943 626 -1233 978 -11 14 -45 53 -76 89 -31 35
-64 76 -74 92 -9 15 -24 27 -32 27 -12 0 -13 -13 -8 -72 4 -40 10 -86 15 -103
4 -16 11 -68 14 -115 4 -47 11 -112 16 -145 20 -127 33 -217 69 -510 6 -49 16
-120 21 -158 6 -37 10 -85 10 -107 0 -22 5 -70 12 -107 13 -79 10 -89 -79
-235 -29 -48 -53 -90 -53 -92 0 -3 -14 -29 -31 -58 -54 -91 -99 -177 -99 -189
0 -30 249 -274 420 -411 158 -127 341 -256 501 -353 45 -27 96 -62 113 -77
l31 -26 5 -282 5 -281 35 -30 c167 -141 588 -383 925 -531 226 -100 547 -217
765 -278 63 -18 150 -43 193 -56 43 -13 85 -24 94 -24 9 0 39 -6 67 -14 132
-38 283 -72 396 -91 52 -9 133 -25 180 -35 47 -10 128 -23 180 -30 52 -6 118
-15 145 -21 65 -12 224 -27 410 -39 83 -5 179 -15 215 -22 93 -18 1122 -18
1235 0 44 7 136 17 205 22 158 12 306 27 390 39 36 6 103 15 150 21 47 6 126
19 175 30 50 10 140 28 200 39 61 11 139 27 175 35 197 44 342 79 395 95 33
11 110 34 170 51 117 34 326 103 366 119 13 6 87 35 164 65 259 100 439 184
690 323 197 108 460 282 497 327 15 19 17 54 18 304 0 156 4 291 9 301 6 10
38 35 73 56 150 93 473 329 558 409 25 23 79 70 120 105 98 82 241 230 264
273 l18 34 -42 84 c-24 47 -58 108 -76 137 -18 28 -59 100 -90 158 -52 99 -56
111 -55 168 1 34 6 89 12 122 6 33 15 94 20 135 4 41 15 129 24 195 9 66 22
174 30 240 8 66 22 172 30 235 9 63 20 162 26 220 6 58 14 120 19 138 9 34 4
62 -10 62 -4 0 -27 -26 -51 -57z m-10 -165 c0 -18 -4 -58 -9 -88 -8 -56 -52
-394 -90 -685 -11 -88 -24 -185 -30 -215 -5 -30 -12 -90 -16 -132 -5 -65 -3
-82 11 -105 10 -14 33 -56 52 -92 20 -36 50 -91 68 -121 79 -135 125 -221 125
-234 0 -16 -192 -211 -296 -302 -189 -164 -353 -290 -518 -399 -113 -75 -130
-83 -140 -66 -3 5 -6 346 -7 757 0 457 -4 755 -10 766 -13 24 -32 23 -55 -3
-34 -39 -238 -208 -354 -295 -131 -98 -140 -97 -140 11 0 42 4 85 10 95 5 10
45 37 87 60 174 95 458 284 557 370 23 20 66 54 96 77 154 114 471 427 598
591 40 51 62 55 61 10z m-10099 -99 c98 -115 309 -324 437 -432 220 -186 465
-353 729 -497 61 -33 118 -68 126 -78 19 -22 13 -158 -8 -166 -7 -3 -36 12
-64 32 -87 63 -282 221 -342 279 -41 39 -64 53 -80 51 l-23 -3 -3 -787 c-2
-850 0 -810 -53 -770 -13 10 -64 42 -114 72 -49 29 -115 72 -145 94 -30 23
-68 49 -83 59 -24 16 -101 75 -231 180 -113 90 -366 334 -366 351 0 7 77 147
155 281 76 131 106 194 107 224 0 37 -22 228 -32 276 -5 22 -13 92 -20 155 -6
63 -13 122 -15 130 -2 8 -16 112 -30 230 -14 118 -30 240 -35 270 -21 125 -21
152 -1 149 3 0 44 -45 91 -100z m933 -1002 c63 -57 82 -72 237 -184 94 -68
153 -107 355 -234 67 -42 464 -238 595 -295 177 -76 594 -219 770 -264 127
-33 361 -89 435 -104 39 -8 95 -20 125 -26 102 -21 214 -40 350 -60 74 -11
164 -24 200 -29 322 -49 937 -68 1450 -46 320 14 843 75 1065 125 50 11 149
32 220 46 268 53 723 187 980 289 39 15 88 34 110 42 22 8 58 23 80 33 302
137 484 228 594 296 88 55 340 223 444 296 48 33 90 58 93 55 9 -9 -139 -146
-269 -250 -138 -111 -167 -132 -372 -269 -269 -180 -277 -186 -268 -191 26
-16 329 120 498 224 134 82 210 113 170 69 -49 -54 -303 -233 -589 -413 -114
-73 -96 -91 35 -36 106 44 343 161 421 209 37 22 71 40 76 40 5 0 26 14 47 30
37 30 65 39 65 21 0 -5 -23 -26 -52 -48 -28 -21 -83 -62 -122 -91 -105 -77
-275 -190 -411 -271 -178 -107 -193 -130 -54 -81 124 43 161 59 304 133 243
126 295 154 313 171 10 9 24 16 30 16 16 0 15 -20 0 -20 -7 0 -46 -30 -87 -65
-41 -36 -77 -65 -81 -65 -3 0 -15 -8 -26 -18 -18 -17 -115 -81 -259 -174 -38
-24 -108 -65 -155 -91 -47 -26 -98 -58 -115 -72 l-30 -26 46 5 c64 7 325 121
507 221 35 19 89 46 120 60 l56 26 -52 -50 c-29 -28 -117 -93 -195 -144 -151
-100 -400 -247 -417 -247 -13 0 -50 -37 -50 -50 0 -30 261 74 519 206 101 52
187 92 190 88 10 -10 -124 -119 -208 -169 -9 -5 -34 -21 -56 -34 -159 -98
-207 -126 -324 -191 -130 -72 -149 -85 -137 -97 19 -20 417 143 606 247 47 26
96 50 110 54 21 6 17 0 -20 -34 -86 -79 -275 -201 -450 -293 -47 -24 -107 -58
-134 -76 -28 -17 -55 -31 -61 -31 -6 0 -27 -12 -46 -26 l-34 -26 46 5 c90 12
292 90 534 208 201 98 188 93 175 69 -6 -11 -14 -20 -19 -20 -4 0 -29 -18 -54
-40 -72 -64 -241 -165 -489 -294 -92 -48 -170 -91 -173 -96 -11 -18 42 -22 73
-6 17 9 38 16 47 16 41 0 523 207 587 251 41 30 55 22 22 -12 -64 -68 -357
-245 -587 -354 -281 -134 -97 -107 283 41 36 14 110 47 165 74 55 26 111 51
124 55 22 7 23 6 9 -14 -15 -22 -34 -36 -163 -117 -85 -54 -175 -103 -424
-230 -85 -43 -149 -80 -143 -82 29 -9 248 52 402 113 102 40 260 111 300 133
135 76 292 189 311 223 12 23 14 1912 2 1916 -35 13 -35 21 -3 62 34 42 53 50
66 29 4 -6 6 -470 5 -1031 -2 -1139 5 -1036 -75 -1089 -140 -94 -304 -199
-321 -207 -11 -5 -45 -23 -75 -41 -62 -37 -266 -141 -380 -194 -386 -179 -801
-319 -1295 -438 -110 -26 -405 -87 -479 -98 -687 -103 -943 -123 -1556 -123
-485 0 -808 21 -1215 78 -55 7 -136 19 -180 25 -439 61 -1081 227 -1475 380
-58 23 -127 50 -155 60 -73 27 -107 41 -315 136 -272 125 -748 410 -795 477
-13 19 -15 142 -15 1049 0 1172 -10 1068 93 975z"/>
<path d="M6823 5118 c-4 -7 -9 -438 -9 -958 l-1 -945 41 -40 c92 -89 328 -226
531 -308 234 -95 425 -148 425 -118 0 5 -73 46 -162 91 -90 46 -199 102 -243
127 -160 88 -327 205 -313 218 3 4 32 -7 64 -23 171 -86 428 -188 572 -228 47
-12 66 -14 74 -6 7 7 10 13 7 16 -2 2 -92 48 -199 103 -107 55 -217 114 -245
131 -27 17 -82 51 -121 74 -73 45 -197 148 -177 148 6 0 18 -6 25 -13 7 -7 38
-23 68 -36 30 -13 82 -37 115 -53 192 -94 488 -201 543 -196 36 3 36 4 -53 49
-353 182 -448 238 -620 369 -22 16 -49 36 -60 44 -11 8 -17 17 -14 20 3 3 63
-24 135 -60 262 -132 506 -228 604 -238 30 -3 46 -2 35 2 -11 4 -31 14 -45 23
-14 9 -92 54 -175 99 -196 109 -373 219 -461 289 -40 31 -80 61 -90 67 -11 7
-16 15 -12 19 4 4 19 0 33 -9 53 -34 220 -119 353 -177 227 -101 372 -148 372
-121 0 8 -143 92 -156 92 -3 0 -25 13 -49 30 -24 16 -54 34 -67 40 -21 8 -211
129 -351 222 -59 39 -90 78 -63 78 8 0 59 -24 113 -53 148 -79 292 -144 425
-193 129 -48 170 -55 147 -28 -7 9 -27 23 -45 32 -224 118 -542 322 -638 411
-32 29 -55 52 -50 49 5 -2 45 -22 89 -44 392 -198 522 -258 588 -269 69 -11
41 23 -66 79 -72 39 -100 56 -302 188 -158 103 -334 242 -322 254 2 2 60 -29
128 -69 132 -78 268 -146 439 -220 107 -46 146 -58 148 -44 5 20 -2 27 -50 52
-56 29 -88 49 -293 184 -175 115 -272 186 -320 234 l-40 39 36 -15 c20 -8 56
-26 80 -41 82 -48 405 -214 454 -233 85 -33 141 -53 152 -53 25 0 0 31 -46 57
-25 14 -68 41 -96 58 -27 18 -84 53 -125 80 -119 75 -221 146 -270 185 -25 19
-61 46 -80 59 -19 13 -44 35 -54 49 l-19 25 29 -7 c16 -4 52 -21 79 -38 81
-51 296 -168 355 -195 177 -80 260 -104 229 -67 -7 8 -29 24 -48 35 -65 35
-395 255 -450 300 -20 16 -83 65 -141 110 -58 45 -150 126 -206 180 -98 96
-124 112 -141 87z m277 -383 c7 -8 8 -15 2 -15 -5 0 -15 7 -22 15 -7 8 -8 15
-2 15 5 0 15 -7 22 -15z"/>
<path d="M13255 4054 c-49 -13 -151 -40 -225 -60 -74 -20 -157 -43 -185 -50
-64 -18 -648 -175 -780 -210 -170 -44 -165 -42 -165 -74 0 -41 79 -322 95
-339 11 -11 24 -11 79 0 44 8 70 9 76 3 6 -6 33 -95 61 -199 28 -105 60 -221
70 -260 11 -38 27 -94 35 -123 19 -69 6 -94 -59 -110 -75 -19 -75 -22 -27
-200 50 -182 54 -192 82 -192 11 0 107 23 212 51 481 127 672 182 688 197 15
16 15 22 -3 87 -11 39 -30 112 -44 164 -35 132 -36 133 -125 104 -36 -12 -57
-14 -68 -7 -18 12 -50 96 -51 137 -1 33 21 44 134 72 81 20 95 29 95 61 0 39
-69 277 -82 286 -19 11 -25 10 -123 -18 -111 -32 -127 -27 -149 47 -9 29 -16
58 -16 65 0 19 24 34 81 49 186 48 172 46 189 30 8 -9 20 -30 26 -47 16 -48
33 -54 101 -35 32 9 110 31 173 47 137 37 164 49 168 76 2 12 -15 86 -38 165
-22 79 -47 171 -56 204 -25 94 -31 105 -56 104 -13 0 -63 -11 -113 -25z"/>
<path d="M8957 3908 c-19 -30 -81 -322 -73 -343 3 -9 19 -21 35 -26 49 -17 47
-40 -7 -121 -27 -40 -107 -163 -178 -272 -170 -265 -164 -258 -224 -250 -43 6
-50 4 -63 -17 -15 -24 -77 -286 -77 -326 0 -11 6 -25 13 -31 10 -8 151 -41
524 -121 93 -20 97 -16 124 110 48 229 48 222 -6 245 -21 8 -35 21 -35 32 0
28 49 92 70 92 22 0 219 -41 287 -59 37 -10 43 -16 48 -45 4 -18 5 -46 3 -62
-3 -28 -5 -29 -55 -29 -28 0 -54 -3 -58 -7 -10 -10 -65 -267 -65 -305 0 -38
11 -45 101 -62 30 -5 137 -28 239 -51 453 -100 459 -101 477 -77 6 6 13 28 16
47 3 19 15 78 27 130 31 139 34 168 20 185 -7 8 -23 15 -35 15 -13 0 -32 8
-44 18 -22 18 -26 37 -71 337 -11 77 -30 196 -40 264 -11 67 -17 128 -14 133
4 6 24 8 46 5 32 -4 41 -2 52 16 14 23 76 296 76 335 0 27 -16 34 -130 57 -47
10 -132 29 -190 42 -58 13 -150 33 -205 44 -55 11 -192 41 -305 66 -272 61
-265 60 -283 31z m386 -602 c3 -8 9 -64 13 -125 l7 -111 -39 0 c-52 1 -114 16
-130 32 -11 11 -5 28 39 100 29 47 59 94 66 102 17 20 37 21 44 2z"/>
<path d="M10866 3674 c-100 -19 -207 -73 -266 -134 -155 -159 -160 -417 -11
-599 58 -72 207 -158 411 -238 109 -43 180 -84 196 -114 19 -38 18 -46 -11
-74 -20 -21 -34 -25 -80 -25 -84 0 -128 30 -192 129 l-34 54 -169 -5 c-126 -3
-173 -8 -186 -19 -16 -13 -16 -34 -10 -249 6 -206 9 -237 24 -248 9 -7 26 -11
37 -8 11 3 84 6 162 6 l142 0 30 32 29 31 51 -22 c28 -12 96 -29 151 -38 94
-15 107 -15 198 0 184 32 322 127 392 271 30 61 35 81 38 167 3 74 0 110 -13
151 -41 122 -119 220 -228 286 -30 18 -124 64 -208 103 -289 130 -319 152
-288 207 19 35 72 47 130 32 42 -12 65 -31 145 -124 l32 -37 163 7 c141 5 166
9 180 24 14 16 15 44 12 202 -3 100 -9 195 -15 211 l-10 27 -168 0 c-165 0
-169 -1 -198 -25 -34 -29 -52 -31 -90 -11 -39 20 -172 46 -229 45 -26 0 -79
-7 -117 -15z"/>
<path d="M10730 5418 c0 -7 5 -20 10 -28 8 -12 10 -11 10 7 0 12 -4 25 -10 28
-5 3 -10 0 -10 -7z"/>
</g>
</svg>
